<?xml version="1.0" encoding="UTF-8" ?>
<!DOCTYPE svg PUBLIC "-//W3C//DTD SVG 1.1//EN" "http://www.w3.org/Graphics/SVG/1.1/DTD/svg11.dtd">
<svg width="223pt" height="223pt" viewBox="0 0 223 223" version="1.1" xmlns="http://www.w3.org/2000/svg">
<path fill="#ffffff" d=" M 0.00 0.00 L 223.00 0.00 L 223.00 223.00 L 0.00 223.00 L 0.00 0.00 Z" />
<path fill="#130300" d=" M 130.54 22.86 C 131.88 22.06 134.90 20.91 135.33 23.23 C 138.67 23.09 142.00 23.03 145.34 22.86 C 146.27 23.82 147.19 24.78 148.10 25.77 C 147.97 27.86 147.93 29.96 148.00 32.05 C 146.24 30.17 146.62 27.58 146.61 25.23 C 144.02 23.43 141.02 24.77 138.44 25.80 L 138.55 24.46 C 135.29 24.41 131.71 22.35 128.74 24.50 C 128.20 24.81 127.10 25.43 126.55 25.74 C 120.03 23.76 113.21 26.75 108.71 31.50 C 106.04 31.21 102.46 30.22 100.88 33.15 C 98.75 36.82 104.14 41.84 106.99 37.61 C 106.23 37.55 104.70 37.43 103.93 37.37 C 105.41 36.91 106.88 36.44 108.36 35.98 C 107.72 38.20 107.00 40.41 106.21 42.59 C 106.77 42.47 107.89 42.23 108.45 42.11 C 108.20 43.11 107.72 45.09 107.47 46.09 C 108.12 46.13 109.42 46.20 110.07 46.24 C 107.42 48.17 105.28 50.71 104.01 53.74 C 104.84 56.71 104.88 59.82 105.19 62.87 C 106.04 62.60 106.90 62.34 107.75 62.07 C 110.00 68.73 116.44 73.21 123.47 73.06 C 123.51 72.40 123.58 71.09 123.61 70.43 C 127.61 73.70 132.79 74.74 137.74 75.65 C 143.10 71.32 148.86 66.94 151.39 60.25 C 151.83 60.67 152.71 61.52 153.15 61.94 C 154.13 59.49 155.73 57.38 156.94 55.05 C 156.80 53.21 156.18 51.45 155.69 49.68 C 156.17 49.28 157.14 48.49 157.63 48.09 C 156.35 44.98 155.07 41.61 152.25 39.55 C 149.97 38.66 147.46 38.78 145.06 38.77 C 143.57 36.44 143.34 33.59 141.85 31.25 C 141.45 29.69 140.86 28.18 140.35 26.65 C 141.68 24.97 143.88 25.51 145.74 25.38 C 145.65 26.17 145.48 27.76 145.40 28.56 C 144.62 28.47 143.07 28.29 142.30 28.21 C 142.98 29.41 144.04 29.89 145.49 29.64 L 145.62 31.85 L 144.09 31.37 L 143.93 32.48 L 145.32 31.96 C 145.77 33.57 147.16 35.30 146.00 36.94 C 147.20 37.06 148.36 37.33 149.48 37.75 C 150.01 37.83 151.07 38.00 151.60 38.08 C 155.86 40.46 159.27 45.06 159.02 50.06 C 157.55 52.66 158.88 55.35 158.73 58.11 C 159.69 58.05 161.63 57.92 162.59 57.86 C 160.25 58.71 157.77 59.33 155.69 60.74 C 153.83 63.96 153.12 67.68 151.73 71.10 C 148.47 74.82 145.33 79.48 139.95 80.03 C 141.05 79.14 141.35 78.13 140.84 77.01 C 138.98 76.14 138.64 79.09 139.40 80.18 C 133.91 82.82 127.73 81.53 122.22 79.69 C 122.59 78.03 122.89 76.36 123.21 74.69 C 122.27 75.31 121.34 75.94 120.41 76.57 C 119.78 75.62 119.14 74.69 118.49 73.75 C 118.33 74.51 118.01 76.02 117.85 76.77 C 116.16 75.76 114.45 74.79 112.76 73.80 C 112.57 73.59 112.19 73.17 112.00 72.96 C 110.14 70.84 108.15 68.83 105.91 67.11 C 105.72 69.54 102.26 69.91 100.81 68.44 C 101.60 69.26 102.38 70.08 103.13 70.93 C 103.30 71.15 103.66 71.59 103.83 71.80 C 104.64 73.97 105.14 76.24 105.48 78.53 C 103.90 75.12 101.89 71.91 99.32 69.15 C 98.61 69.43 97.19 69.99 96.48 70.28 C 90.68 70.18 85.81 73.57 80.63 75.69 C 76.09 79.09 73.63 86.69 77.96 91.24 C 78.77 90.99 79.58 90.74 80.39 90.50 C 82.19 97.54 89.39 100.67 95.21 103.82 C 95.71 103.33 96.21 102.85 96.70 102.36 C 96.87 102.75 97.20 103.53 97.36 103.92 C 98.49 102.70 99.62 101.48 100.72 100.24 C 99.84 102.90 99.27 106.17 101.70 108.22 C 105.10 109.92 108.90 110.65 112.42 112.08 C 113.45 110.39 115.11 107.94 112.17 107.15 C 113.02 106.95 113.88 106.73 114.73 106.52 C 117.41 103.41 120.52 100.73 123.58 98.01 C 122.63 97.19 121.69 96.37 120.74 95.55 C 120.66 95.47 120.49 95.32 120.40 95.25 C 117.69 92.57 114.01 91.31 110.93 89.17 C 110.14 89.43 109.36 89.69 108.57 89.95 C 110.12 85.79 105.42 82.36 101.73 81.91 L 101.13 81.79 C 101.33 80.44 101.53 79.08 101.73 77.73 C 102.58 79.80 104.38 81.06 106.36 81.95 C 106.17 81.17 105.80 79.62 105.61 78.84 C 107.92 81.22 108.15 84.91 110.84 86.99 C 111.56 85.92 112.27 84.85 112.98 83.78 C 113.49 86.51 114.54 89.17 117.14 90.53 C 117.01 88.64 116.87 86.75 116.61 84.88 C 116.86 85.21 117.34 85.89 117.59 86.22 C 117.84 88.34 117.95 90.47 118.17 92.59 C 119.36 91.38 120.10 89.85 120.77 88.32 C 121.59 88.54 122.41 88.76 123.23 88.98 C 122.75 89.05 121.78 89.21 121.30 89.29 C 121.35 90.62 121.45 91.95 121.55 93.28 C 122.86 94.81 123.99 96.49 124.86 98.31 C 129.05 102.12 133.98 105.13 137.48 109.66 L 137.37 111.17 C 136.25 110.37 135.15 109.55 134.05 108.73 C 134.66 111.94 135.00 115.20 135.40 118.44 C 135.28 118.13 135.05 117.49 134.93 117.18 C 134.32 117.75 133.09 118.88 132.48 119.45 C 133.45 115.52 134.00 111.07 131.35 107.63 C 129.31 105.00 127.19 101.59 123.89 100.66 C 118.63 103.04 115.30 109.05 115.00 114.71 C 116.29 115.65 117.58 116.58 118.86 117.54 C 119.87 118.34 120.82 119.21 121.76 120.11 L 120.56 120.87 C 119.87 120.21 119.18 119.55 118.51 118.89 C 117.71 121.41 119.32 125.51 122.51 124.44 C 122.79 124.10 123.37 123.41 123.65 123.06 C 125.13 123.08 126.61 123.15 128.10 123.24 C 129.54 121.03 130.15 118.46 130.66 115.91 C 130.78 117.60 130.89 119.30 130.98 121.00 C 131.68 120.38 133.07 119.15 133.77 118.54 C 133.48 119.49 132.89 121.41 132.59 122.36 C 130.37 123.18 128.20 124.13 126.05 125.10 L 125.98 125.09 L 125.12 124.95 C 124.84 125.30 124.28 126.02 124.00 126.37 C 121.49 126.78 118.45 126.05 117.34 123.52 C 116.40 120.93 116.63 117.62 113.56 116.44 C 115.38 121.46 116.58 126.82 119.31 131.44 C 120.26 132.08 121.23 132.71 122.23 133.29 C 125.88 134.88 130.30 134.74 133.70 132.59 C 136.36 130.94 139.61 131.09 142.50 130.11 C 142.77 129.98 143.30 129.74 143.57 129.61 C 143.92 130.07 144.61 130.98 144.96 131.43 C 136.98 132.23 129.02 137.58 121.04 133.93 C 120.55 133.72 119.57 133.30 119.07 133.09 C 118.95 133.64 118.71 134.74 118.59 135.29 C 118.31 133.83 118.04 132.37 117.77 130.92 C 117.22 131.18 116.13 131.71 115.58 131.98 C 116.83 135.25 118.39 138.44 120.68 141.13 C 120.85 140.54 121.20 139.35 121.37 138.75 C 121.63 140.67 121.83 142.62 122.50 144.45 C 124.02 145.61 125.76 146.85 127.73 146.93 C 130.55 144.63 129.68 140.97 129.23 137.88 C 130.20 140.98 131.22 144.05 132.25 147.13 C 138.30 145.78 144.33 143.96 149.69 140.77 C 150.14 140.72 151.05 140.61 151.51 140.55 C 151.14 137.98 150.71 135.41 150.27 132.85 C 151.06 135.10 151.71 137.39 152.31 139.70 C 154.97 137.99 155.83 134.91 156.66 132.06 C 156.67 133.72 156.70 135.37 156.76 137.04 C 158.79 136.09 159.22 133.92 159.78 131.99 C 159.77 132.91 159.75 134.76 159.74 135.68 C 161.91 135.17 164.08 134.64 166.24 134.11 C 165.90 131.40 165.67 128.64 166.41 125.97 C 166.56 128.48 166.66 130.98 166.78 133.49 C 168.09 133.63 169.45 133.77 170.51 134.67 C 170.15 135.40 169.44 136.84 169.08 137.56 C 169.20 137.77 169.45 138.19 169.57 138.40 C 169.13 140.63 168.63 142.85 167.82 144.99 C 167.33 145.02 166.34 145.08 165.84 145.11 C 165.43 146.76 165.04 148.42 164.84 150.12 C 167.09 149.90 169.52 150.42 171.60 149.33 C 172.68 150.38 174.31 150.18 175.40 149.27 C 178.71 146.92 183.99 147.34 185.87 151.29 C 186.54 153.17 187.14 155.09 187.14 157.12 C 188.35 164.21 190.11 171.48 194.50 177.39 C 196.01 179.20 196.82 181.42 197.97 183.46 C 197.85 185.65 198.90 189.16 196.05 189.95 C 192.59 189.81 188.65 190.97 185.54 189.10 C 184.09 189.04 182.65 189.01 181.22 188.99 C 181.21 191.73 179.04 193.61 177.16 195.28 C 175.03 196.37 172.47 196.49 170.50 197.94 C 165.78 198.77 161.51 196.35 157.09 195.17 C 152.84 194.67 148.36 195.74 144.33 193.85 C 141.90 192.58 139.84 190.66 139.00 187.99 C 138.36 184.49 141.29 181.57 140.96 178.08 C 140.90 175.38 141.74 172.79 142.13 170.14 C 139.56 169.07 137.63 167.13 136.21 164.79 C 133.78 163.57 131.73 161.66 130.86 159.02 C 130.18 159.03 128.83 159.05 128.15 159.06 C 126.42 162.20 122.60 162.54 119.45 163.23 C 118.45 164.25 117.47 164.22 116.50 163.15 C 114.56 162.99 112.47 163.28 110.71 162.27 C 106.82 160.42 102.43 159.66 98.87 157.13 C 97.94 156.47 97.18 155.60 97.09 154.42 C 95.87 152.50 94.56 150.63 93.46 148.64 C 93.01 147.53 92.53 146.44 92.05 145.35 C 90.94 144.28 90.13 142.97 89.47 141.60 C 88.46 139.00 85.71 137.46 85.07 134.60 C 84.34 133.64 83.62 132.68 82.95 131.68 C 82.02 129.58 81.00 127.51 80.09 125.41 C 79.13 124.54 78.36 123.52 77.97 122.29 C 75.69 120.43 74.24 117.91 72.45 115.64 C 72.50 114.14 71.20 113.39 70.27 112.47 C 69.46 111.74 68.64 111.02 67.81 110.30 C 69.06 109.68 70.31 109.06 71.57 108.45 C 66.51 104.52 61.08 100.94 56.90 96.01 C 51.47 95.99 46.04 96.01 40.61 96.00 C 47.97 103.56 55.47 110.98 62.95 118.41 C 63.23 118.67 63.80 119.19 64.08 119.46 C 64.20 121.31 63.63 123.04 62.75 124.65 C 62.49 125.15 61.97 126.15 61.71 126.65 C 61.24 127.56 60.76 128.48 60.28 129.40 C 59.11 131.80 57.90 134.19 56.76 136.61 C 55.57 138.85 54.47 141.13 53.29 143.38 C 52.79 144.47 52.26 145.55 51.75 146.63 C 50.88 148.20 50.11 149.82 49.29 151.41 C 48.00 154.09 46.68 156.75 45.28 159.38 C 44.78 160.47 44.25 161.55 43.73 162.64 C 42.88 164.21 42.10 165.83 41.28 167.42 C 40.33 169.43 39.33 171.43 38.29 173.40 C 36.85 176.31 35.51 179.28 33.83 182.06 C 47.21 181.89 60.59 182.06 73.96 181.98 C 73.97 178.99 73.98 175.99 74.00 172.99 C 75.53 172.98 77.06 172.97 78.59 172.97 C 86.12 180.71 93.93 188.18 101.37 196.00 C 71.90 196.03 42.43 196.07 12.97 195.98 C 12.82 194.61 13.81 193.54 14.27 192.35 C 15.12 190.79 15.86 189.17 16.71 187.62 C 17.21 186.54 17.75 185.49 18.25 184.43 C 18.98 183.10 19.66 181.74 20.30 180.37 C 20.99 179.05 21.66 177.71 22.30 176.36 C 23.11 174.78 23.87 173.17 24.72 171.60 C 25.24 170.54 25.77 169.48 26.29 168.41 C 26.98 167.08 27.64 165.73 28.28 164.38 C 28.97 163.05 29.64 161.72 30.29 160.39 C 31.11 158.80 31.87 157.18 32.72 155.60 C 33.22 154.52 33.76 153.46 34.26 152.38 C 35.09 150.79 35.88 149.18 36.71 147.60 C 37.23 146.51 37.76 145.43 38.28 144.35 C 39.11 142.78 39.87 141.17 40.71 139.60 C 41.36 138.26 42.03 136.93 42.73 135.62 C 43.23 134.53 43.77 133.46 44.28 132.37 C 44.98 131.06 45.65 129.73 46.29 128.38 C 47.10 126.79 47.87 125.18 48.73 123.61 C 49.05 122.55 50.35 121.55 49.88 120.41 C 37.51 107.92 24.90 95.65 12.67 83.02 C 24.24 82.92 35.82 83.12 47.39 82.88 C 46.99 80.95 44.91 80.39 43.58 79.23 C 41.67 78.30 39.79 77.33 37.88 76.40 C 39.32 75.83 40.73 75.22 42.18 74.68 C 42.04 72.40 39.76 71.60 37.94 70.98 C 34.45 69.46 30.59 70.11 26.90 70.00 C 25.43 69.84 24.01 70.13 22.86 71.10 L 22.91 70.38 C 25.64 68.31 27.71 65.48 30.63 63.65 C 35.53 60.19 41.30 58.21 47.13 57.02 C 48.16 56.97 49.11 57.23 49.99 57.81 C 48.85 58.16 46.58 58.86 45.44 59.22 C 49.91 63.04 55.58 65.13 59.76 69.29 C 61.38 70.75 63.57 71.64 64.72 73.58 C 67.78 76.60 70.55 79.95 73.86 82.73 C 74.39 81.88 74.89 81.02 75.36 80.13 C 75.53 79.83 75.86 79.21 76.03 78.90 C 74.92 75.76 71.25 74.58 70.46 71.31 C 73.37 72.80 74.61 76.33 77.86 77.41 C 78.06 76.56 78.45 74.85 78.65 74.00 C 79.50 74.17 81.19 74.50 82.04 74.67 C 80.99 72.87 79.89 71.08 78.59 69.45 C 78.89 69.53 79.49 69.70 79.80 69.79 C 81.48 71.15 83.00 73.22 85.45 72.03 C 81.62 66.15 75.44 62.55 69.89 58.51 L 69.70 58.33 L 69.42 58.19 C 68.75 57.82 67.41 57.08 66.74 56.71 C 67.30 58.18 67.86 59.64 68.49 61.08 C 66.43 59.21 64.53 56.94 61.69 56.28 C 61.54 56.59 61.24 57.20 61.09 57.51 C 59.19 57.17 57.27 56.89 55.36 56.62 C 56.62 58.17 57.87 59.72 58.99 61.37 C 56.22 59.99 54.08 56.74 50.59 57.50 C 50.50 57.16 50.31 56.48 50.22 56.14 C 51.96 55.88 53.74 55.99 55.50 55.87 C 59.58 54.59 64.37 54.44 68.45 55.81 C 71.18 55.95 73.89 56.33 76.44 57.32 C 83.18 58.62 88.76 62.86 94.56 66.04 C 94.24 66.29 93.60 66.79 93.28 67.04 L 92.78 67.28 C 86.94 61.98 79.30 59.01 71.60 57.75 C 76.41 62.44 82.35 65.83 86.93 70.80 C 89.06 70.25 91.23 69.78 93.20 68.76 C 97.11 67.55 101.19 66.57 105.26 65.78 C 104.16 62.50 102.79 59.30 101.97 55.93 C 102.51 53.71 103.17 51.43 104.71 49.68 C 105.26 47.76 106.66 45.76 105.12 43.93 C 105.09 43.26 105.02 41.92 104.99 41.25 C 103.72 40.92 102.47 40.54 101.23 40.12 C 99.67 38.36 98.51 36.36 98.89 33.92 C 100.18 32.60 101.21 30.90 102.91 30.08 C 105.17 30.07 107.43 30.21 109.68 30.07 C 109.76 28.35 111.01 27.15 112.60 26.72 C 113.99 26.04 115.30 25.21 116.50 24.23 C 120.45 23.32 125.05 25.08 128.60 23.07 C 129.09 23.02 130.06 22.91 130.54 22.86 Z" />
<path fill="#d4b086" d=" M 108.71 31.50 C 113.21 26.75 120.03 23.76 126.55 25.74 C 127.10 25.43 128.20 24.81 128.74 24.50 C 131.34 23.95 135.92 22.89 136.12 26.77 C 134.42 27.48 132.74 28.22 131.08 28.99 C 131.17 29.64 131.34 30.93 131.43 31.57 C 131.72 31.30 132.30 30.75 132.60 30.47 L 133.58 32.02 C 133.21 35.13 133.15 38.55 135.09 41.21 C 138.27 41.65 141.29 39.16 144.55 38.87 L 145.06 38.77 C 147.46 38.78 149.97 38.66 152.25 39.55 C 155.07 41.61 156.35 44.98 157.63 48.09 C 157.14 48.49 156.17 49.28 155.69 49.68 C 156.18 51.45 156.80 53.21 156.94 55.05 C 155.73 57.38 154.13 59.49 153.15 61.94 C 152.71 61.52 151.83 60.67 151.39 60.25 C 148.86 66.94 143.10 71.32 137.74 75.65 C 132.79 74.74 127.61 73.70 123.61 70.43 C 123.58 71.09 123.51 72.40 123.47 73.06 C 116.44 73.21 110.00 68.73 107.75 62.07 C 106.90 62.34 106.04 62.60 105.19 62.87 C 104.88 59.82 104.84 56.71 104.01 53.74 C 105.28 50.71 107.42 48.17 110.07 46.24 C 109.42 46.20 108.12 46.13 107.47 46.09 C 107.72 45.09 108.20 43.11 108.45 42.11 C 107.89 42.23 106.77 42.47 106.21 42.59 C 107.00 40.41 107.72 38.20 108.36 35.98 C 106.88 36.44 105.41 36.91 103.93 37.37 C 104.70 37.43 106.23 37.55 106.99 37.61 C 104.14 41.84 98.75 36.82 100.88 33.15 C 102.46 30.22 106.04 31.21 108.71 31.50 Z" />
<path fill="#3a0b00" d=" M 131.08 28.99 C 132.74 28.22 134.42 27.48 136.12 26.77 L 136.90 26.43 C 137.58 26.77 138.92 27.44 139.59 27.78 C 139.58 28.20 139.57 29.03 139.57 29.45 C 137.62 29.39 135.68 29.37 133.74 29.39 C 133.46 29.66 132.88 30.20 132.60 30.47 C 132.30 30.75 131.72 31.30 131.43 31.57 C 131.34 30.93 131.17 29.64 131.08 28.99 Z" />
<path fill="#130300" d=" M 120.35 29.54 C 121.44 29.62 122.53 29.69 123.62 29.76 C 124.32 30.41 125.02 31.07 125.72 31.73 C 123.58 31.42 121.35 30.57 119.23 31.40 C 117.32 31.91 116.21 33.67 114.89 34.99 C 115.40 32.13 117.86 30.55 120.35 29.54 Z" />
<path fill="#100300" d=" M 134.53 30.35 C 136.23 30.37 137.93 30.39 139.64 30.41 C 140.48 32.27 141.38 34.12 142.43 35.88 C 142.36 36.22 142.21 36.91 142.13 37.25 C 142.74 37.65 143.95 38.46 144.55 38.87 C 141.29 39.16 138.27 41.65 135.09 41.21 C 133.15 38.55 133.21 35.13 133.58 32.02 C 133.82 31.60 134.30 30.77 134.53 30.35 Z" />
<path fill="#fff5f3" d=" M 136.26 30.85 C 137.02 31.03 138.55 31.38 139.31 31.56 C 139.90 33.04 140.52 34.52 141.32 35.91 C 141.38 37.26 140.96 38.41 140.05 39.35 C 139.81 36.14 138.46 33.20 136.26 30.85 Z" />
<path fill="#775a43" d=" M 102.21 35.12 C 102.88 32.72 105.11 32.51 107.17 33.17 C 108.03 36.11 103.76 34.49 102.21 35.12 Z" />
<path fill="#0b0700" d=" M 119.52 33.55 C 121.45 31.36 124.20 33.28 126.22 34.32 L 125.48 34.76 C 124.89 34.39 123.73 33.64 123.14 33.27 C 124.40 36.19 125.17 39.27 125.53 42.43 C 122.12 42.77 119.33 44.85 116.08 45.63 C 116.80 44.49 117.56 43.38 118.32 42.27 C 117.56 39.40 117.43 35.89 119.52 33.55 Z" />
<path fill="#ffffff" d=" M 135.88 35.41 C 137.21 34.64 138.52 36.72 137.62 37.76 C 136.32 38.68 134.66 36.41 135.88 35.41 Z" />
<path fill="#fdfaf7" d=" M 122.96 40.92 C 121.30 40.70 121.03 37.67 122.87 37.55 C 124.19 37.93 124.52 40.72 122.96 40.92 Z" />
<path fill="#544029" d=" M 127.08 40.93 C 130.37 41.04 125.61 44.01 127.08 40.93 Z" />
<path fill="#10040b" d=" M 129.74 43.33 C 131.52 43.69 133.31 43.53 135.01 42.86 C 135.63 43.05 136.88 43.41 137.51 43.59 C 137.55 44.63 137.62 46.72 137.66 47.76 C 137.02 47.63 135.75 47.38 135.11 47.25 C 135.11 49.29 134.09 51.77 135.56 53.51 C 137.37 54.27 139.42 53.75 141.32 54.03 L 141.39 54.54 C 139.55 54.86 137.70 55.10 135.85 55.32 C 136.36 58.32 136.70 61.34 136.97 64.37 C 139.19 64.34 141.40 64.03 143.57 63.54 C 144.32 60.45 144.55 57.28 144.41 54.11 C 143.81 53.98 142.61 53.74 142.02 53.61 L 141.83 53.29 C 143.45 51.41 147.64 52.65 149.51 50.11 C 149.46 49.35 149.36 47.83 149.31 47.07 C 150.62 47.35 152.20 47.26 153.03 48.52 C 152.44 48.78 151.26 49.32 150.67 49.58 C 148.55 52.33 142.81 55.64 146.59 59.36 C 145.21 61.67 144.44 65.11 141.07 64.93 C 136.71 64.95 132.70 67.31 128.31 66.68 C 127.39 65.67 127.48 64.18 127.10 62.95 C 123.67 58.36 116.67 60.05 113.80 54.91 C 113.38 55.40 112.55 56.39 112.13 56.88 C 112.14 56.20 112.17 54.85 112.18 54.18 C 113.23 53.76 114.28 53.35 115.33 52.94 C 114.97 55.61 117.38 57.86 119.91 58.10 C 122.80 58.65 125.15 56.30 128.00 56.39 C 130.72 56.36 134.70 55.31 134.33 51.83 C 133.42 51.28 132.48 50.80 131.51 50.38 C 131.19 49.90 130.56 48.94 130.25 48.46 C 129.70 48.89 128.60 49.73 128.05 50.15 C 126.79 47.66 127.00 44.70 129.74 43.33 Z" />
<path fill="#3e362a" d=" M 134.13 44.32 C 137.45 44.27 132.72 47.40 134.13 44.32 Z" />
<path fill="#fff5f3" d=" M 129.34 45.18 C 130.10 43.65 132.63 45.03 131.46 46.43 C 130.62 47.71 128.21 46.63 129.34 45.18 Z" />
<path fill="#fdfaf7" d=" M 141.32 54.03 C 141.44 53.85 141.70 53.48 141.83 53.29 L 142.02 53.61 C 142.61 53.74 143.81 53.98 144.41 54.11 C 144.55 57.28 144.32 60.45 143.57 63.54 C 141.40 64.03 139.19 64.34 136.97 64.37 C 136.70 61.34 136.36 58.32 135.85 55.32 C 137.70 55.10 139.55 54.86 141.39 54.54 L 141.32 54.03 Z" />
<path fill="#fff5f3" d=" M 61.69 56.28 C 64.53 56.94 66.43 59.21 68.49 61.08 C 70.35 62.86 72.41 64.41 74.49 65.91 C 75.66 66.99 76.47 68.55 77.98 69.19 C 78.13 69.26 78.43 69.39 78.59 69.45 C 79.89 71.08 80.99 72.87 82.04 74.67 C 81.19 74.50 79.50 74.17 78.65 74.00 C 76.14 70.74 72.80 68.19 70.71 64.61 C 70.15 64.60 69.05 64.57 68.50 64.56 C 66.77 61.45 63.42 60.03 61.09 57.51 C 61.24 57.20 61.54 56.59 61.69 56.28 Z" />
<path fill="#f4fdf3" d=" M 126.19 57.74 C 129.32 57.80 132.24 56.75 135.03 55.44 C 135.35 58.69 135.91 61.94 135.64 65.22 C 133.36 65.62 131.06 65.95 128.74 65.98 C 128.03 63.19 127.11 60.46 126.19 57.74 Z" />
<path fill="#6d6751" d=" M 55.36 56.62 C 57.27 56.89 59.19 57.17 61.09 57.51 C 63.42 60.03 66.77 61.45 68.50 64.56 C 69.05 64.57 70.15 64.60 70.71 64.61 C 72.80 68.19 76.14 70.74 78.65 74.00 C 78.45 74.85 78.06 76.56 77.86 77.41 C 74.61 76.33 73.37 72.80 70.46 71.31 C 70.15 71.13 69.87 70.91 69.63 70.64 C 68.22 68.52 66.49 66.66 64.55 65.03 C 64.51 64.63 64.44 63.83 64.41 63.43 C 64.20 63.65 63.79 64.09 63.58 64.31 C 63.07 63.79 62.05 62.76 61.54 62.25 C 61.26 62.19 60.71 62.07 60.43 62.01 L 59.30 61.81 L 58.99 61.37 C 57.87 59.72 56.62 58.17 55.36 56.62 Z" />
<path fill="#7c644c" d=" M 66.74 56.71 C 67.41 57.08 68.75 57.82 69.42 58.19 L 69.64 58.37 L 69.89 58.51 C 75.44 62.55 81.62 66.15 85.45 72.03 C 83.00 73.22 81.48 71.15 79.80 69.79 C 79.49 69.70 78.89 69.53 78.59 69.45 C 78.43 69.39 78.13 69.26 77.98 69.19 C 78.69 67.31 76.27 63.71 74.49 65.91 C 72.41 64.41 70.35 62.86 68.49 61.08 C 67.86 59.64 67.30 58.18 66.74 56.71 Z" />
<path fill="#a29e95" d=" M 69.42 58.19 L 69.70 58.33 L 69.89 58.51 L 69.64 58.37 L 69.42 58.19 Z" />
<path fill="#cab391" d=" M 71.60 57.75 C 79.30 59.01 86.94 61.98 92.78 67.28 L 93.28 67.04 L 93.91 66.75 L 93.20 68.76 C 91.23 69.78 89.06 70.25 86.93 70.80 C 82.35 65.83 76.41 62.44 71.60 57.75 Z" />
<path fill="#562032" d=" M 162.59 57.86 C 162.94 58.23 163.63 58.97 163.97 59.34 L 164.34 59.96 C 164.74 59.95 165.56 59.94 165.96 59.93 C 168.65 60.07 170.54 62.48 172.92 63.52 L 172.68 63.77 C 172.49 63.97 172.09 64.38 171.89 64.58 C 166.87 65.29 163.82 58.33 158.62 60.87 C 158.08 61.40 157.56 61.96 157.06 62.53 C 155.82 65.70 155.06 69.41 151.73 71.10 C 153.12 67.68 153.83 63.96 155.69 60.74 C 157.77 59.33 160.25 58.71 162.59 57.86 Z" />
<path fill="#726251" d=" M 45.44 59.22 C 46.58 58.86 48.85 58.16 49.99 57.81 C 50.78 59.91 52.92 60.80 55.05 60.22 C 56.69 61.99 58.16 63.93 59.24 66.09 C 59.69 66.31 60.59 66.75 61.04 66.97 C 62.86 65.97 63.36 68.47 64.40 69.36 C 68.65 72.25 71.55 76.71 75.36 80.13 C 74.89 81.02 74.39 81.88 73.86 82.73 C 70.55 79.95 67.78 76.60 64.72 73.58 C 63.57 71.64 61.38 70.75 59.76 69.29 C 55.58 65.13 49.91 63.04 45.44 59.22 Z" />
<path fill="#1e0309" d=" M 163.97 59.34 C 164.42 59.29 165.33 59.17 165.78 59.12 L 165.96 59.93 C 165.56 59.94 164.74 59.95 164.34 59.96 L 163.97 59.34 Z" />
<path fill="#d5b085" d=" M 39.99 60.89 C 42.20 59.36 44.83 60.83 46.92 61.86 C 49.48 64.56 53.10 65.64 56.33 67.27 C 56.48 67.75 56.77 68.70 56.92 69.18 C 60.53 70.39 62.11 74.15 65.59 75.52 C 65.20 78.56 68.61 79.28 70.59 80.59 C 70.65 81.17 70.77 82.33 70.83 82.91 C 64.25 82.72 57.64 83.17 51.08 82.71 C 48.82 81.23 47.01 79.13 44.71 77.68 C 44.47 76.78 44.13 75.92 43.69 75.10 C 44.35 74.98 45.68 74.74 46.34 74.62 C 41.82 69.59 34.87 67.90 28.33 67.91 C 31.48 64.49 35.97 63.00 39.99 60.89 Z" />
<path fill="#6e0926" d=" M 158.62 60.87 C 163.82 58.33 166.87 65.29 171.89 64.58 C 172.62 65.17 173.35 65.78 174.08 66.38 C 174.75 67.30 175.41 68.23 176.07 69.16 C 173.54 70.20 171.68 68.68 170.43 66.58 C 169.53 67.26 168.62 67.91 167.72 68.58 C 167.50 70.19 167.27 71.78 167.03 73.38 C 165.61 71.13 163.66 69.13 160.82 69.03 C 162.76 72.36 166.19 74.60 167.71 78.20 C 170.24 83.06 169.92 88.70 170.03 94.01 C 170.00 96.58 167.22 96.97 165.37 97.70 C 164.65 94.73 162.30 92.74 160.60 90.35 C 160.31 85.92 159.91 81.36 157.12 77.67 C 157.09 78.12 157.01 79.01 156.98 79.45 L 156.03 79.94 C 155.99 79.25 155.91 77.88 155.87 77.19 C 155.56 77.48 154.94 78.07 154.63 78.36 C 154.09 78.39 153.56 78.42 153.02 78.44 C 151.35 81.46 147.47 81.56 144.76 83.22 C 145.08 83.49 145.72 84.01 146.05 84.28 C 145.77 84.36 145.21 84.54 144.93 84.62 C 142.59 83.19 141.17 84.99 140.41 87.03 C 140.97 88.57 141.41 90.16 141.78 91.77 C 142.89 92.15 144.00 92.53 145.11 92.92 C 144.97 94.50 144.83 96.08 144.69 97.67 C 143.45 97.66 142.22 97.65 140.98 97.65 C 138.24 94.31 141.18 89.95 138.95 86.32 C 138.68 86.39 138.13 86.54 137.86 86.62 L 137.43 86.74 C 130.98 84.54 124.04 88.85 117.59 86.22 C 117.34 85.89 116.86 85.21 116.61 84.88 C 116.20 83.30 115.84 81.71 115.47 80.12 C 115.67 79.63 116.06 78.65 116.25 78.16 C 118.27 78.56 120.25 79.11 122.22 79.69 C 127.73 81.53 133.91 82.82 139.40 80.18 L 139.95 80.03 C 145.33 79.48 148.47 74.82 151.73 71.10 C 155.06 69.41 155.82 65.70 157.06 62.53 C 157.30 63.80 157.54 65.06 157.78 66.33 C 160.88 66.32 164.75 67.31 166.44 63.86 C 163.87 62.75 161.24 61.82 158.62 60.87 Z" />
<path fill="#840029" d=" M 157.06 62.53 C 157.56 61.96 158.08 61.40 158.62 60.87 C 161.24 61.82 163.87 62.75 166.44 63.86 C 164.75 67.31 160.88 66.32 157.78 66.33 C 157.54 65.06 157.30 63.80 157.06 62.53 Z" />
<path fill="#3a0b00" d=" M 60.43 62.01 C 60.71 62.07 61.26 62.19 61.54 62.25 C 62.05 62.76 63.07 63.79 63.58 64.31 C 63.79 64.09 64.20 63.65 64.41 63.43 C 64.44 63.83 64.51 64.63 64.55 65.03 C 66.49 66.66 68.22 68.52 69.63 70.64 C 66.52 69.27 64.88 66.00 61.72 64.67 C 61.30 63.78 60.87 62.89 60.43 62.01 Z" />
<path fill="#8a5366" d=" M 168.29 62.28 C 168.80 62.82 168.80 62.82 168.29 62.28 Z" />
<path fill="#130300" d=" M 171.89 64.58 C 172.09 64.38 172.49 63.97 172.68 63.77 C 173.68 64.26 174.66 64.77 175.65 65.29 C 177.70 66.38 179.78 67.45 181.96 68.26 L 182.04 68.89 C 179.31 68.30 176.68 67.36 174.08 66.38 C 173.35 65.78 172.62 65.17 171.89 64.58 Z" />
<path fill="#130300" d=" M 74.49 65.91 C 76.27 63.71 78.69 67.31 77.98 69.19 C 76.47 68.55 75.66 66.99 74.49 65.91 Z" />
<path fill="#3b3025" d=" M 59.24 66.09 C 59.67 66.09 60.52 66.09 60.94 66.09 L 61.04 66.97 C 60.59 66.75 59.69 66.31 59.24 66.09 Z" />
<path fill="#3f2d29" d=" M 148.48 69.45 C 148.83 67.85 149.59 66.48 151.13 65.76 C 151.99 69.83 148.38 72.94 145.98 75.74 C 145.58 75.68 144.79 75.57 144.39 75.52 C 144.23 76.39 144.08 77.26 143.94 78.13 C 141.87 78.41 141.20 76.83 141.90 75.07 C 143.31 73.65 144.44 71.12 146.82 71.58 C 146.92 71.04 147.11 69.95 147.20 69.41 C 147.52 69.42 148.16 69.44 148.48 69.45 Z" />
<path fill="#7c0227" d=" M 167.72 68.58 C 168.62 67.91 169.53 67.26 170.43 66.58 C 171.68 68.68 173.54 70.20 176.07 69.16 C 179.58 70.93 183.13 73.09 185.43 76.37 C 186.42 80.07 184.99 84.02 183.27 87.30 C 181.00 89.41 177.85 86.83 176.09 85.13 C 177.39 83.61 179.23 82.29 179.66 80.22 C 177.79 77.04 174.63 74.90 172.34 72.04 C 170.80 72.92 169.29 73.86 167.82 74.86 C 167.62 74.49 167.23 73.75 167.03 73.38 C 167.27 71.78 167.50 70.19 167.72 68.58 Z" />
<path fill="#e0bf98" d=" M 105.91 67.11 C 108.15 68.83 110.14 70.84 112.00 72.96 C 110.93 73.37 109.85 73.78 108.78 74.19 C 107.86 72.63 106.94 71.08 106.05 69.51 C 105.29 70.26 104.54 71.01 103.83 71.80 C 103.66 71.59 103.30 71.15 103.13 70.93 C 102.38 70.08 101.60 69.26 100.81 68.44 C 102.26 69.91 105.72 69.54 105.91 67.11 Z" />
<path fill="#5a1a28" d=" M 174.08 66.38 C 176.68 67.36 179.31 68.30 182.04 68.89 C 182.44 68.95 183.24 69.08 183.64 69.14 L 183.66 69.27 C 183.70 69.62 183.80 70.30 183.85 70.64 C 185.47 72.94 187.95 74.93 188.12 77.94 C 188.37 81.45 187.43 84.91 187.09 88.39 C 187.04 88.70 186.96 89.31 186.91 89.61 C 186.60 90.24 185.99 91.48 185.68 92.11 L 185.38 91.69 L 184.97 91.12 C 184.01 91.35 183.06 91.60 182.12 91.86 C 180.59 91.08 179.06 90.31 177.51 89.59 C 178.97 92.56 182.51 93.95 182.95 97.55 C 181.37 99.64 180.33 102.53 177.84 103.70 C 175.10 103.87 173.71 100.70 171.59 99.41 C 174.09 95.73 173.70 91.25 174.02 87.04 C 173.25 86.87 171.72 86.52 170.95 86.35 C 171.49 83.74 173.70 82.81 176.11 82.42 C 172.38 81.12 169.01 78.82 167.82 74.86 C 169.29 73.86 170.80 72.92 172.34 72.04 C 174.63 74.90 177.79 77.04 179.66 80.22 C 179.23 82.29 177.39 83.61 176.09 85.13 C 177.85 86.83 181.00 89.41 183.27 87.30 C 184.99 84.02 186.42 80.07 185.43 76.37 C 183.13 73.09 179.58 70.93 176.07 69.16 C 175.41 68.23 174.75 67.30 174.08 66.38 Z" />
<path fill="#755024" d=" M 136.24 68.08 C 140.28 67.04 136.17 72.42 135.07 69.29 C 135.36 68.99 135.94 68.38 136.24 68.08 Z" />
<path fill="#e7c593" d=" M 96.48 70.28 C 97.19 69.99 98.61 69.43 99.32 69.15 C 101.89 71.91 103.90 75.12 105.48 78.53 C 105.52 78.61 105.58 78.76 105.61 78.84 C 105.80 79.62 106.17 81.17 106.36 81.95 C 104.38 81.06 102.58 79.80 101.73 77.73 C 100.23 75.08 98.35 72.68 96.48 70.28 Z" />
<path fill="#3c1514" d=" M 160.82 69.03 C 163.66 69.13 165.61 71.13 167.03 73.38 C 167.23 73.75 167.62 74.49 167.82 74.86 C 169.01 78.82 172.38 81.12 176.11 82.42 C 173.70 82.81 171.49 83.74 170.95 86.35 C 171.72 86.52 173.25 86.87 174.02 87.04 C 173.70 91.25 174.09 95.73 171.59 99.41 C 173.71 100.70 175.10 103.87 177.84 103.70 C 180.33 102.53 181.37 99.64 182.95 97.55 C 182.51 93.95 178.97 92.56 177.51 89.59 C 179.06 90.31 180.59 91.08 182.12 91.86 C 183.06 91.60 184.01 91.35 184.97 91.12 L 185.38 91.69 C 185.08 92.39 184.48 93.78 184.18 94.48 C 184.56 99.60 180.78 103.46 178.06 107.35 C 180.22 110.35 180.88 114.39 178.90 117.67 C 177.64 119.41 176.73 121.73 174.46 122.37 C 173.85 122.59 172.63 123.05 172.01 123.28 C 172.02 126.80 172.27 130.35 171.74 133.85 C 170.02 129.85 171.02 125.44 170.45 121.25 C 168.52 121.76 166.57 122.16 164.60 122.43 C 165.63 121.48 166.67 120.54 167.72 119.61 C 167.20 118.64 166.68 117.67 166.16 116.70 C 164.57 116.67 163.00 116.57 161.43 116.35 C 162.90 115.79 164.36 115.20 165.83 114.62 C 165.18 113.14 163.95 111.76 164.09 110.06 C 164.65 107.58 166.20 105.49 167.49 103.34 C 164.10 98.39 160.70 93.47 157.45 88.43 C 157.37 87.87 157.29 87.31 157.20 86.75 C 160.01 84.94 157.20 81.85 156.98 79.45 C 157.01 79.01 157.09 78.12 157.12 77.67 C 159.91 81.36 160.31 85.92 160.60 90.35 C 162.30 92.74 164.65 94.73 165.37 97.70 C 167.22 96.97 170.00 96.58 170.03 94.01 C 169.92 88.70 170.24 83.06 167.71 78.20 C 166.19 74.60 162.76 72.36 160.82 69.03 Z" />
<path fill="#521d25" d=" M 80.63 75.69 C 85.81 73.57 90.68 70.18 96.48 70.28 C 98.35 72.68 100.23 75.08 101.73 77.73 C 101.53 79.08 101.33 80.44 101.13 81.79 C 100.72 81.71 99.90 81.55 99.48 81.46 C 98.50 78.18 97.72 72.20 93.00 72.99 C 88.94 74.18 85.57 77.29 81.12 77.33 C 79.83 79.27 77.93 81.26 78.33 83.79 C 78.39 86.11 80.37 87.60 81.70 89.26 C 83.91 91.54 84.21 95.20 87.08 96.92 C 89.87 98.80 93.47 102.32 96.94 99.96 C 98.78 99.07 99.50 97.05 100.57 95.45 C 102.13 92.79 104.88 91.16 106.77 88.76 C 106.10 85.95 103.28 84.26 101.73 81.91 C 105.42 82.36 110.12 85.79 108.57 89.95 C 109.36 89.69 110.14 89.43 110.93 89.17 C 114.01 91.31 117.69 92.57 120.40 95.25 L 120.55 95.42 L 120.74 95.55 C 121.69 96.37 122.63 97.19 123.58 98.01 C 120.52 100.73 117.41 103.41 114.73 106.52 C 113.88 106.73 113.02 106.95 112.17 107.15 C 115.11 107.94 113.45 110.39 112.42 112.08 C 108.90 110.65 105.10 109.92 101.70 108.22 C 99.27 106.17 99.84 102.90 100.72 100.24 C 99.62 101.48 98.49 102.70 97.36 103.92 C 97.20 103.53 96.87 102.75 96.70 102.36 C 96.21 102.85 95.71 103.33 95.21 103.82 C 89.39 100.67 82.19 97.54 80.39 90.50 C 79.58 90.74 78.77 90.99 77.96 91.24 C 73.63 86.69 76.09 79.09 80.63 75.69 Z" />
<path fill="#551c29" d=" M 103.83 71.80 C 104.54 71.01 105.29 70.26 106.05 69.51 C 106.94 71.08 107.86 72.63 108.78 74.19 C 109.98 76.24 111.07 78.36 111.97 80.57 C 112.35 81.62 112.68 82.70 112.98 83.78 C 112.27 84.85 111.56 85.92 110.84 86.99 C 108.15 84.91 107.92 81.22 105.61 78.84 C 105.58 78.76 105.52 78.61 105.48 78.53 C 105.14 76.24 104.64 73.97 103.83 71.80 Z" />
<path fill="#130300" d=" M 183.85 70.64 C 183.80 70.30 183.70 69.62 183.66 69.27 C 186.23 71.50 189.11 74.27 189.03 77.96 C 189.02 81.50 189.65 85.50 187.09 88.39 C 187.43 84.91 188.37 81.45 188.12 77.94 C 187.95 74.93 185.47 72.94 183.85 70.64 Z" />
<path fill="#770227" d=" M 81.12 77.33 C 85.57 77.29 88.94 74.18 93.00 72.99 C 97.72 72.20 98.50 78.18 99.48 81.46 C 99.90 81.55 100.72 81.71 101.13 81.79 L 101.73 81.91 C 103.28 84.26 106.10 85.95 106.77 88.76 C 104.88 91.16 102.13 92.79 100.57 95.45 C 99.50 97.05 98.78 99.07 96.94 99.96 C 93.47 102.32 89.87 98.80 87.08 96.92 C 84.21 95.20 83.91 91.54 81.70 89.26 C 80.37 87.60 78.39 86.11 78.33 83.79 C 77.93 81.26 79.83 79.27 81.12 77.33 Z" />
<path fill="#eec38a" d=" M 108.78 74.19 C 109.85 73.78 110.93 73.37 112.00 72.96 C 112.19 73.17 112.57 73.59 112.76 73.80 C 113.59 75.57 114.38 77.37 115.13 79.18 C 114.08 79.64 113.02 80.10 111.97 80.57 C 111.07 78.36 109.98 76.24 108.78 74.19 Z" />
<path fill="#582e2d" d=" M 112.76 73.80 C 114.45 74.79 116.16 75.76 117.85 76.77 C 118.01 76.02 118.33 74.51 118.49 73.75 C 119.14 74.69 119.78 75.62 120.41 76.57 C 121.34 75.94 122.27 75.31 123.21 74.69 C 122.89 76.36 122.59 78.03 122.22 79.69 C 120.25 79.11 118.27 78.56 116.25 78.16 C 116.06 78.65 115.67 79.63 115.47 80.12 C 115.39 79.89 115.22 79.42 115.13 79.18 C 114.38 77.37 113.59 75.57 112.76 73.80 Z" />
<path fill="#86786c" d=" M 44.71 77.68 C 42.24 79.26 40.30 74.19 43.69 75.10 C 44.13 75.92 44.47 76.78 44.71 77.68 Z" />
<path fill="#4b282f" d=" M 124.16 75.84 C 127.89 74.73 131.40 76.89 135.06 77.31 C 134.95 78.53 134.85 79.75 134.75 80.98 C 134.04 80.40 133.33 79.82 132.63 79.24 C 132.09 79.91 131.56 80.59 131.02 81.26 C 130.70 80.85 130.06 80.04 129.74 79.64 C 127.76 80.01 125.77 79.80 123.84 79.30 C 123.92 78.44 124.08 76.71 124.16 75.84 Z" />
<path fill="#4c2f31" d=" M 139.40 80.18 C 138.64 79.09 138.98 76.14 140.84 77.01 C 141.35 78.13 141.05 79.14 139.95 80.03 L 139.40 80.18 Z" />
<path fill="#3a0b00" d=" M 154.63 78.36 C 154.94 78.07 155.56 77.48 155.87 77.19 C 155.91 77.88 155.99 79.25 156.03 79.94 C 152.72 81.43 149.50 83.15 146.05 84.28 C 145.72 84.01 145.08 83.49 144.76 83.22 C 147.47 81.56 151.35 81.46 153.02 78.44 C 153.56 78.42 154.09 78.39 154.63 78.36 Z" />
<path fill="#493436" d=" M 136.20 78.16 C 137.87 77.62 138.41 78.16 137.83 79.77 C 136.16 80.30 135.62 79.76 136.20 78.16 Z" />
<path fill="#e0bf98" d=" M 111.97 80.57 C 113.02 80.10 114.08 79.64 115.13 79.18 C 115.22 79.42 115.39 79.89 115.47 80.12 C 115.84 81.71 116.20 83.30 116.61 84.88 C 116.87 86.75 117.01 88.64 117.14 90.53 C 114.54 89.17 113.49 86.51 112.98 83.78 C 112.68 82.70 112.35 81.62 111.97 80.57 Z" />
<path fill="#e7c593" d=" M 146.05 84.28 C 149.50 83.15 152.72 81.43 156.03 79.94 L 156.98 79.45 C 157.20 81.85 160.01 84.94 157.20 86.75 C 156.73 85.00 156.03 83.32 155.33 81.66 C 153.26 83.71 150.87 85.44 147.96 86.04 C 145.90 86.41 146.36 89.07 145.62 90.51 C 145.01 90.49 143.77 90.43 143.15 90.41 C 142.83 88.81 142.54 87.20 142.28 85.60 C 142.94 85.35 144.26 84.87 144.93 84.62 C 145.21 84.54 145.77 84.36 146.05 84.28 Z" />
<path fill="#fbc263" d=" M 147.96 86.04 C 150.87 85.44 153.26 83.71 155.33 81.66 C 156.03 83.32 156.73 85.00 157.20 86.75 C 157.29 87.31 157.37 87.87 157.45 88.43 C 156.53 94.78 163.53 98.14 164.61 103.94 C 164.08 105.40 163.21 106.71 162.44 108.07 C 160.74 105.15 159.75 101.88 157.93 99.05 C 157.15 97.78 155.54 98.61 154.53 99.03 C 154.39 99.15 154.12 99.39 153.99 99.51 C 149.83 102.67 148.26 109.49 151.70 113.70 C 149.36 117.00 144.75 114.79 141.75 117.24 C 141.08 116.01 140.42 114.77 139.78 113.53 L 139.98 112.97 C 140.99 110.93 140.61 108.67 140.08 106.57 C 138.59 106.35 136.56 107.11 135.59 105.57 C 131.74 100.86 126.56 97.35 123.50 91.97 C 123.66 91.59 123.98 90.82 124.14 90.44 C 127.96 89.77 131.86 89.74 135.71 89.38 C 136.25 90.54 136.79 91.70 137.33 92.86 C 137.07 93.03 136.56 93.36 136.30 93.53 C 136.16 96.79 138.75 99.06 140.42 101.56 C 141.81 103.61 143.45 105.47 145.44 106.94 C 147.46 102.28 149.93 97.24 147.97 92.10 C 147.58 91.75 146.80 91.06 146.41 90.71 C 146.21 90.66 145.82 90.56 145.62 90.51 C 146.36 89.07 145.90 86.41 147.96 86.04 Z" />
<path fill="#3a0b00" d=" M 140.41 87.03 C 141.17 84.99 142.59 83.19 144.93 84.62 C 144.26 84.87 142.94 85.35 142.28 85.60 C 142.54 87.20 142.83 88.81 143.15 90.41 C 143.77 90.43 145.01 90.49 145.62 90.51 C 145.82 90.56 146.21 90.66 146.41 90.71 C 146.10 95.21 145.76 99.73 144.85 104.16 C 141.72 100.84 139.39 96.88 136.30 93.53 C 136.56 93.36 137.07 93.03 137.33 92.86 C 137.72 92.61 138.50 92.12 138.89 91.88 C 138.64 90.11 138.25 88.36 137.86 86.62 C 138.13 86.54 138.68 86.39 138.95 86.32 C 141.18 89.95 138.24 94.31 140.98 97.65 C 142.22 97.65 143.45 97.66 144.69 97.67 C 144.83 96.08 144.97 94.50 145.11 92.92 C 144.00 92.53 142.89 92.15 141.78 91.77 C 141.41 90.16 140.97 88.57 140.41 87.03 Z" />
<path fill="#e6c492" d=" M 18.69 86.01 C 37.16 85.90 55.63 85.99 74.10 86.00 C 74.10 86.61 74.12 87.84 74.13 88.46 C 75.34 89.89 76.37 91.47 77.41 93.03 C 63.64 92.81 49.83 93.43 36.09 92.74 C 37.26 92.19 38.40 91.37 39.74 91.36 C 51.20 91.68 62.68 91.86 74.14 91.69 C 73.42 90.57 73.16 88.75 71.61 88.47 C 68.13 87.65 64.54 87.40 60.99 87.02 C 55.33 86.44 49.68 87.64 44.02 87.28 C 38.69 86.92 33.37 88.06 28.04 87.39 C 26.61 87.49 23.70 86.67 23.31 88.59 C 26.55 92.02 30.10 95.15 33.34 98.58 C 34.11 98.53 34.87 98.47 35.64 98.41 C 35.71 100.05 35.79 101.69 35.95 103.33 C 30.08 97.68 24.24 91.98 18.69 86.01 Z" />
<path fill="#5b2f23" d=" M 117.59 86.22 C 124.04 88.85 130.98 84.54 137.43 86.74 C 132.83 88.16 128.00 88.53 123.23 88.98 C 122.41 88.76 121.59 88.54 120.77 88.32 C 120.10 89.85 119.36 91.38 118.17 92.59 C 117.95 90.47 117.84 88.34 117.59 86.22 Z" />
<path fill="#f5c266" d=" M 23.31 88.59 C 23.70 86.67 26.61 87.49 28.04 87.39 C 33.37 88.06 38.69 86.92 44.02 87.28 C 49.68 87.64 55.33 86.44 60.99 87.02 C 64.54 87.40 68.13 87.65 71.61 88.47 C 73.16 88.75 73.42 90.57 74.14 91.69 C 62.68 91.86 51.20 91.68 39.74 91.36 C 38.40 91.37 37.26 92.19 36.09 92.74 C 35.78 92.90 35.15 93.23 34.83 93.40 L 35.11 93.87 C 38.05 99.42 43.89 102.58 47.16 107.90 C 51.71 109.88 53.68 115.07 58.21 117.01 C 59.40 117.38 60.01 118.13 60.04 119.23 C 60.00 120.39 60.02 121.56 60.08 122.72 C 60.10 123.23 60.15 124.25 60.17 124.77 L 59.27 124.96 C 58.80 125.07 57.87 125.30 57.40 125.42 C 55.71 129.27 54.00 133.12 51.71 136.68 C 45.05 151.17 37.41 165.17 30.28 179.43 C 29.20 181.56 29.15 184.01 28.82 186.34 C 43.09 186.59 57.40 185.94 71.68 186.52 C 74.15 186.69 76.56 186.03 78.81 185.05 C 78.64 182.98 78.52 180.90 78.46 178.83 C 83.19 182.50 87.47 186.78 91.15 191.51 C 73.77 191.75 56.38 191.50 39.00 191.64 C 32.64 191.98 26.27 191.03 19.91 191.78 C 20.72 189.30 21.57 186.82 21.96 184.24 C 22.10 182.87 22.64 181.60 23.18 180.36 L 23.86 179.71 C 26.60 176.36 29.33 172.58 29.82 168.14 C 29.90 167.67 30.07 166.74 30.16 166.27 C 30.44 166.08 30.99 165.70 31.27 165.52 C 33.79 164.09 34.56 161.15 35.84 158.77 C 38.74 153.06 41.58 147.33 44.79 141.78 C 45.51 140.74 45.34 139.47 45.17 138.29 C 44.62 136.80 45.77 135.55 46.24 134.24 C 46.49 134.07 46.99 133.72 47.24 133.55 C 50.14 131.99 51.42 128.71 51.00 125.54 C 51.00 125.18 51.01 124.47 51.02 124.11 L 52.31 123.82 C 53.99 123.84 55.21 121.27 53.44 120.43 C 51.39 119.11 49.69 117.34 47.99 115.62 L 48.05 114.77 C 48.65 112.87 47.00 110.55 45.01 111.82 L 44.38 112.02 C 41.69 109.01 38.54 106.43 35.95 103.33 C 35.79 101.69 35.71 100.05 35.64 98.41 C 34.87 98.47 34.11 98.53 33.34 98.58 C 30.10 95.15 26.55 92.02 23.31 88.59 Z" />
<path fill="#f4cd90" d=" M 123.23 88.98 C 128.00 88.53 132.83 88.16 137.43 86.74 L 137.86 86.62 C 138.25 88.36 138.64 90.11 138.89 91.88 C 138.50 92.12 137.72 92.61 137.33 92.86 C 136.79 91.70 136.25 90.54 135.71 89.38 C 131.86 89.74 127.96 89.77 124.14 90.44 C 123.98 90.82 123.66 91.59 123.50 91.97 C 126.56 97.35 131.74 100.86 135.59 105.57 C 136.56 107.11 138.59 106.35 140.08 106.57 C 140.61 108.67 140.99 110.93 139.98 112.97 C 139.75 112.60 139.28 111.86 139.05 111.48 C 138.54 110.86 138.02 110.25 137.48 109.66 C 133.98 105.13 129.05 102.12 124.86 98.31 C 123.99 96.49 122.86 94.81 121.55 93.28 C 121.45 91.95 121.35 90.62 121.30 89.29 C 121.78 89.21 122.75 89.05 123.23 88.98 Z" />
<path fill="#eec38a" d=" M 164.61 103.94 C 163.53 98.14 156.53 94.78 157.45 88.43 C 160.70 93.47 164.10 98.39 167.49 103.34 C 166.20 105.49 164.65 107.58 164.09 110.06 C 163.95 111.76 165.18 113.14 165.83 114.62 C 164.36 115.20 162.90 115.79 161.43 116.35 C 161.15 116.32 160.60 116.25 160.32 116.22 C 159.72 114.37 159.17 112.50 158.55 110.66 C 159.17 110.34 160.40 109.70 161.02 109.39 C 159.80 107.06 158.40 104.83 156.88 102.69 C 156.72 102.44 156.41 101.95 156.25 101.70 C 155.67 100.81 155.09 99.92 154.53 99.03 C 155.54 98.61 157.15 97.78 157.93 99.05 C 159.75 101.88 160.74 105.15 162.44 108.07 C 163.21 106.71 164.08 105.40 164.61 103.94 Z" />
<path fill="#f0be82" d=" M 146.41 90.71 C 146.80 91.06 147.58 91.75 147.97 92.10 C 149.93 97.24 147.46 102.28 145.44 106.94 C 143.45 105.47 141.81 103.61 140.42 101.56 C 138.75 99.06 136.16 96.79 136.30 93.53 C 139.39 96.88 141.72 100.84 144.85 104.16 C 145.76 99.73 146.10 95.21 146.41 90.71 Z" />
<path fill="#e7c593" d=" M 78.04 92.60 C 80.56 94.48 81.68 97.58 84.08 99.59 C 83.76 100.19 83.11 101.39 82.78 101.99 C 82.35 102.00 81.48 102.02 81.05 102.03 C 81.04 102.46 81.03 103.32 81.03 103.74 C 79.96 104.13 78.93 104.62 77.95 105.21 C 78.02 101.01 77.89 96.80 78.04 92.60 Z" />
<path fill="#fff5f3" d=" M 35.11 93.87 C 42.86 101.53 50.58 109.23 58.21 117.01 C 53.68 115.07 51.71 109.88 47.16 107.90 C 43.89 102.58 38.05 99.42 35.11 93.87 Z" />
<path fill="#6b515c" d=" M 120.40 95.25 C 120.49 95.32 120.66 95.47 120.74 95.55 L 120.55 95.42 L 120.40 95.25 Z" />
<path fill="#fafdf5" d=" M 40.61 96.00 C 46.04 96.01 51.47 95.99 56.90 96.01 C 61.08 100.94 66.51 104.52 71.57 108.45 C 70.31 109.06 69.06 109.68 67.81 110.30 C 68.64 111.02 69.46 111.74 70.27 112.47 C 68.38 115.05 66.09 117.43 62.95 118.41 C 55.47 110.98 47.97 103.56 40.61 96.00 Z" />
<path fill="#d5af88" d=" M 59.89 96.05 C 64.93 95.97 69.97 96.04 75.01 95.93 C 75.03 99.61 75.02 103.29 75.00 106.97 C 76.54 106.97 78.08 106.98 79.62 106.99 C 80.60 105.91 81.58 104.84 82.57 103.77 L 83.02 104.40 C 83.66 105.31 84.29 106.22 84.89 107.15 L 84.87 107.92 C 84.69 108.37 84.34 109.27 84.16 109.72 C 84.73 110.28 85.88 111.42 86.45 111.98 L 86.38 112.51 L 86.37 112.56 L 86.48 112.75 C 86.70 113.12 87.13 113.86 87.34 114.23 C 88.01 115.24 88.73 116.22 89.47 117.18 C 89.15 117.46 88.50 118.03 88.17 118.32 C 89.55 120.40 90.86 122.51 92.30 124.55 C 92.41 124.72 92.63 125.05 92.74 125.21 C 93.09 125.69 93.79 126.64 94.14 127.12 L 94.10 127.94 C 94.07 128.41 94.00 129.35 93.96 129.82 L 94.66 130.25 L 94.83 130.52 C 95.60 131.88 96.36 133.25 97.14 134.61 C 97.15 135.11 97.16 136.09 97.17 136.59 C 98.73 138.62 100.29 140.67 102.04 142.55 L 102.05 142.55 C 103.60 146.03 105.98 149.14 109.38 150.98 C 112.90 151.04 116.41 150.66 119.94 150.61 C 121.36 150.83 121.93 149.19 122.80 148.40 C 123.80 148.28 124.80 148.18 125.81 148.08 C 126.42 150.85 127.65 153.40 128.98 155.90 C 125.10 161.55 116.69 163.99 110.68 160.34 C 105.80 158.66 99.59 157.31 98.12 151.53 C 95.63 148.96 95.31 145.03 92.58 142.68 C 92.08 141.56 91.59 140.43 91.11 139.30 C 88.16 136.20 86.12 132.31 84.13 128.56 C 81.98 122.65 76.79 118.79 74.01 113.29 C 73.01 112.24 72.01 111.21 70.99 110.18 C 72.69 110.04 74.38 109.90 76.07 109.73 C 75.23 109.38 74.39 109.04 73.54 108.70 C 73.22 106.47 71.04 105.57 69.47 104.35 C 66.31 101.54 62.61 99.36 59.89 96.05 Z" />
<path fill="#824652" d=" M 107.12 98.94 C 107.27 98.77 107.59 98.42 107.74 98.25 C 107.59 98.42 107.27 98.77 107.12 98.94 Z" />
<path fill="#3c0309" d=" M 107.74 98.25 C 110.99 98.02 107.43 102.14 107.12 98.94 C 107.27 98.77 107.59 98.42 107.74 98.25 Z" />
<path fill="#130300" d=" M 153.99 99.51 C 154.12 99.39 154.39 99.15 154.53 99.03 C 155.09 99.92 155.67 100.81 156.25 101.70 C 155.00 102.76 153.75 103.80 152.54 104.90 C 153.07 103.12 153.51 101.31 153.99 99.51 Z" />
<path fill="#e7c593" d=" M 151.70 113.70 C 148.26 109.49 149.83 102.67 153.99 99.51 C 153.51 101.31 153.07 103.12 152.54 104.90 C 152.49 105.08 152.38 105.43 152.32 105.61 C 151.76 107.36 151.14 109.09 150.50 110.82 C 153.42 110.34 153.80 112.87 154.12 115.06 C 153.72 115.38 152.91 116.03 152.51 116.35 C 152.39 116.39 152.15 116.47 152.03 116.51 C 149.85 117.16 147.67 117.80 145.50 118.47 C 145.39 118.50 145.18 118.56 145.07 118.59 C 142.93 118.84 140.77 118.94 138.61 119.01 C 138.42 117.56 138.23 116.12 138.13 114.66 C 138.54 114.38 139.37 113.82 139.78 113.53 C 140.42 114.77 141.08 116.01 141.75 117.24 C 144.75 114.79 149.36 117.00 151.70 113.70 Z" />
<path fill="#837061" d=" M 83.02 104.40 C 83.81 103.24 84.61 102.08 85.40 100.93 C 87.42 103.72 89.10 106.74 90.00 110.09 L 89.48 110.13 L 89.60 110.59 L 90.19 110.62 C 91.72 113.29 92.89 116.16 93.97 119.04 L 93.49 119.07 L 93.60 119.50 L 94.14 119.56 C 94.69 121.19 95.01 122.89 95.37 124.58 C 97.04 127.38 97.94 130.54 99.09 133.58 C 97.63 132.60 96.20 131.60 94.83 130.52 L 94.66 130.25 C 94.52 129.67 94.24 128.52 94.10 127.94 L 94.14 127.12 L 94.21 126.27 C 93.84 126.01 93.11 125.48 92.74 125.21 C 92.63 125.05 92.41 124.72 92.30 124.55 C 91.13 120.66 90.46 116.63 88.93 112.85 C 88.53 113.19 87.74 113.89 87.34 114.23 C 87.13 113.86 86.70 113.12 86.48 112.75 C 86.46 112.69 86.41 112.57 86.38 112.51 L 86.45 111.98 C 87.44 109.49 86.44 107.10 84.93 105.09 L 84.89 107.15 C 84.29 106.22 83.66 105.31 83.02 104.40 Z" />
<path fill="#fff5f3" d=" M 85.40 100.93 C 86.49 101.35 87.57 101.77 88.66 102.19 C 89.40 103.27 90.21 104.31 90.93 105.41 C 91.35 106.23 91.76 107.05 92.18 107.88 C 92.02 108.35 91.71 109.29 91.55 109.76 C 93.35 111.61 94.92 113.71 95.77 116.18 C 95.84 116.73 95.99 117.83 96.07 118.38 L 96.13 118.72 C 96.33 119.19 96.74 120.12 96.94 120.59 L 97.07 120.85 C 97.67 122.03 98.35 123.18 99.02 124.33 C 98.73 124.73 98.17 125.54 97.88 125.94 C 98.91 127.32 99.95 128.69 100.99 130.06 C 100.90 130.50 100.73 131.39 100.64 131.83 C 100.70 132.17 100.84 132.84 100.90 133.18 C 101.42 133.76 101.94 134.34 102.48 134.92 C 103.68 136.96 104.75 139.10 106.41 140.82 C 107.07 141.59 107.70 142.38 108.36 143.16 C 108.51 143.36 108.83 143.75 108.99 143.95 C 111.17 144.85 113.66 145.43 114.94 147.66 C 113.26 147.38 111.60 147.07 109.93 146.72 C 109.05 145.91 108.14 145.11 107.24 144.32 L 106.88 143.93 C 104.56 141.36 102.33 138.70 100.18 135.98 C 99.80 135.19 99.43 134.39 99.09 133.58 C 97.94 130.54 97.04 127.38 95.37 124.58 C 95.01 122.89 94.69 121.19 94.14 119.56 L 93.97 119.04 C 92.89 116.16 91.72 113.29 90.19 110.62 L 90.00 110.09 C 89.10 106.74 87.42 103.72 85.40 100.93 Z" />
<path fill="#c9b396" d=" M 115.00 114.71 C 115.30 109.05 118.63 103.04 123.89 100.66 C 127.19 101.59 129.31 105.00 131.35 107.63 C 134.00 111.07 133.45 115.52 132.48 119.45 C 133.09 118.88 134.32 117.75 134.93 117.18 C 135.05 117.49 135.28 118.13 135.40 118.44 C 135.58 118.91 135.92 119.84 136.10 120.30 C 135.96 120.86 135.70 121.97 135.57 122.53 C 135.14 122.93 134.30 123.74 133.88 124.15 C 133.63 124.33 133.14 124.70 132.90 124.88 C 132.43 124.94 131.51 125.06 131.05 125.12 C 129.40 125.52 127.67 125.79 126.05 125.10 C 128.20 124.13 130.37 123.18 132.59 122.36 C 132.89 121.41 133.48 119.49 133.77 118.54 C 133.07 119.15 131.68 120.38 130.98 121.00 C 130.89 119.30 130.78 117.60 130.66 115.91 C 130.15 118.46 129.54 121.03 128.10 123.24 C 126.61 123.15 125.13 123.08 123.65 123.06 C 123.37 123.41 122.79 124.10 122.51 124.44 C 119.32 125.51 117.71 121.41 118.51 118.89 C 119.18 119.55 119.87 120.21 120.56 120.87 L 121.76 120.11 C 122.69 120.21 123.60 120.44 124.52 120.66 C 125.04 121.33 125.56 122.01 126.07 122.69 C 126.26 120.49 126.46 118.29 126.65 116.09 C 128.59 115.44 130.78 114.41 130.77 112.02 C 129.95 108.69 127.12 105.90 123.82 105.03 C 121.16 104.43 118.88 106.94 118.41 109.34 C 118.30 112.08 118.72 114.81 118.86 117.54 C 117.58 116.58 116.29 115.65 115.00 114.71 Z" />
<path fill="#58112b" d=" M 156.25 101.70 C 156.41 101.95 156.72 102.44 156.88 102.69 C 157.48 104.53 158.04 106.39 158.62 108.24 C 158.16 108.99 157.70 109.74 157.24 110.48 C 157.57 110.53 158.23 110.61 158.55 110.66 C 159.17 112.50 159.72 114.37 160.32 116.22 C 160.47 116.67 160.77 117.55 160.91 118.00 C 157.97 117.21 154.92 117.73 151.95 117.98 L 152.03 116.51 C 152.15 116.47 152.39 116.39 152.51 116.35 C 153.04 116.46 154.10 116.70 154.63 116.82 C 154.88 115.17 155.13 113.53 155.37 111.89 C 153.63 110.21 152.77 107.94 152.32 105.61 C 152.38 105.43 152.49 105.08 152.54 104.90 C 153.75 103.80 155.00 102.76 156.25 101.70 Z" />
<path fill="#c7b190" d=" M 166.66 108.64 C 168.50 106.31 170.16 103.87 171.79 101.39 C 173.98 101.71 172.73 104.37 172.83 105.81 C 172.26 108.72 169.96 110.78 167.82 112.64 C 166.43 111.89 165.47 110.01 166.66 108.64 Z" />
<path fill="#130300" d=" M 156.88 102.69 C 158.40 104.83 159.80 107.06 161.02 109.39 C 160.40 109.70 159.17 110.34 158.55 110.66 C 158.23 110.61 157.57 110.53 157.24 110.48 C 157.70 109.74 158.16 108.99 158.62 108.24 C 158.04 106.39 157.48 104.53 156.88 102.69 Z" />
<path fill="#6e5f4e" d=" M 92.55 103.35 C 92.92 104.17 93.29 104.99 93.65 105.81 L 93.57 106.01 C 97.00 107.02 97.08 111.05 98.23 113.82 C 97.93 114.31 97.33 115.28 97.03 115.77 C 97.49 115.30 98.42 114.36 98.89 113.89 C 99.12 114.47 99.57 115.64 99.80 116.22 L 99.69 116.14 C 99.74 116.22 99.83 116.39 99.88 116.47 C 100.58 118.09 101.07 119.79 101.59 121.47 C 103.01 123.33 103.76 125.54 104.21 127.81 C 105.98 130.74 107.25 133.94 109.24 136.74 C 110.33 138.06 110.17 139.75 109.65 141.26 C 109.33 141.73 108.68 142.68 108.36 143.16 C 107.70 142.38 107.07 141.59 106.41 140.82 C 106.19 138.25 104.84 136.06 102.48 134.92 C 101.94 134.34 101.42 133.76 100.90 133.18 C 101.31 132.78 102.12 132.00 102.53 131.61 C 101.58 130.09 100.66 128.56 99.76 127.02 C 99.63 126.47 99.39 125.36 99.27 124.81 L 99.02 124.33 C 98.35 123.18 97.67 122.03 97.07 120.85 L 97.21 120.90 C 97.14 120.82 97.01 120.67 96.94 120.59 C 96.74 120.12 96.33 119.19 96.13 118.72 C 96.20 118.62 96.35 118.42 96.42 118.32 L 96.07 118.38 C 95.99 117.83 95.84 116.73 95.77 116.18 C 94.92 113.71 93.35 111.61 91.55 109.76 C 91.71 109.29 92.02 108.35 92.18 107.88 C 91.76 107.05 91.35 106.23 90.93 105.41 C 91.33 104.89 92.14 103.87 92.55 103.35 Z" />
<path fill="#fff5f3" d=" M 93.65 105.81 C 94.02 105.52 94.76 104.94 95.12 104.65 C 96.21 105.33 97.31 105.99 98.42 106.63 C 99.05 108.13 99.67 109.64 100.13 111.20 C 101.06 114.76 102.53 118.13 104.30 121.35 C 105.06 124.25 106.22 127.05 107.63 129.70 C 109.10 131.90 110.23 134.31 111.80 136.45 C 112.26 136.97 112.73 137.50 113.21 138.02 C 113.77 140.82 116.72 141.23 119.06 141.58 C 118.76 144.07 117.26 143.58 115.62 142.30 C 115.43 142.89 115.07 144.09 114.89 144.68 C 116.20 144.62 117.51 144.54 118.83 144.47 L 119.05 145.11 C 117.76 145.09 116.06 146.01 114.99 145.09 C 113.96 142.82 113.42 139.80 110.21 139.98 L 110.62 142.66 C 111.31 142.64 112.68 142.59 113.36 142.57 C 112.73 143.34 111.78 143.46 110.86 143.60 C 110.56 143.01 109.95 141.84 109.65 141.26 C 110.17 139.75 110.33 138.06 109.24 136.74 C 107.25 133.94 105.98 130.74 104.21 127.81 C 103.76 125.54 103.01 123.33 101.59 121.47 C 101.07 119.79 100.58 118.09 99.88 116.47 L 99.80 116.22 C 99.57 115.64 99.12 114.47 98.89 113.89 C 98.42 114.36 97.49 115.30 97.03 115.77 C 97.33 115.28 97.93 114.31 98.23 113.82 C 97.08 111.05 97.00 107.02 93.57 106.01 L 93.65 105.81 Z" />
<path fill="#d6af7f" d=" M 118.41 109.34 C 118.88 106.94 121.16 104.43 123.82 105.03 C 127.12 105.90 129.95 108.69 130.77 112.02 C 130.78 114.41 128.59 115.44 126.65 116.09 C 126.40 116.19 125.91 116.40 125.67 116.51 C 125.26 117.89 124.88 119.27 124.52 120.66 C 123.60 120.44 122.69 120.21 121.76 120.11 C 120.82 119.21 119.87 118.34 118.86 117.54 C 118.72 114.81 118.30 112.08 118.41 109.34 Z" />
<path fill="#c0ad97" d=" M 173.86 109.02 C 174.33 107.58 173.84 105.33 175.75 104.89 C 179.01 109.07 174.88 115.02 170.90 117.10 C 168.97 118.60 168.48 115.72 168.06 114.53 C 170.28 113.02 172.11 111.04 173.86 109.02 Z" />
<path fill="#361b0a" d=" M 84.93 105.09 C 86.44 107.10 87.44 109.49 86.45 111.98 C 85.88 111.42 84.73 110.28 84.16 109.72 C 84.34 109.27 84.69 108.37 84.87 107.92 L 84.89 107.15 L 84.93 105.09 Z" />
<path fill="#3a0b00" d=" M 152.32 105.61 C 152.77 107.94 153.63 110.21 155.37 111.89 C 155.13 113.53 154.88 115.17 154.63 116.82 C 154.10 116.70 153.04 116.46 152.51 116.35 C 152.91 116.03 153.72 115.38 154.12 115.06 C 153.80 112.87 153.42 110.34 150.50 110.82 C 151.14 109.09 151.76 107.36 152.32 105.61 Z" />
<path fill="#4a2d2e" d=" M 134.05 108.73 C 135.15 109.55 136.25 110.37 137.37 111.17 L 137.48 109.66 C 138.02 110.25 138.54 110.86 139.05 111.48 C 138.11 112.36 137.18 113.25 136.24 114.13 C 136.81 116.51 137.65 118.83 138.93 120.93 C 138.55 121.26 137.80 121.91 137.42 122.24 C 137.09 121.75 136.43 120.79 136.10 120.30 C 135.92 119.84 135.58 118.91 135.40 118.44 C 135.00 115.20 134.66 111.94 134.05 108.73 Z" />
<path fill="#020e00" d=" M 89.48 110.13 L 90.00 110.09 L 90.19 110.62 L 89.60 110.59 L 89.48 110.13 Z" />
<path fill="#6e624c" d=" M 100.13 111.20 C 100.55 110.94 101.40 110.42 101.83 110.16 C 104.61 112.78 106.45 116.30 107.42 119.97 C 108.24 121.96 109.66 123.70 109.98 125.89 C 109.89 127.30 111.08 128.71 112.42 127.56 C 112.46 127.69 112.54 127.94 112.58 128.07 C 112.17 129.41 112.14 130.87 113.18 131.95 C 115.12 134.63 116.84 137.47 118.19 140.50 C 116.84 140.09 115.59 139.44 114.43 138.62 L 113.21 138.02 C 112.73 137.50 112.26 136.97 111.80 136.45 C 111.79 133.48 110.21 131.07 107.63 129.70 C 106.22 127.05 105.06 124.25 104.30 121.35 C 102.53 118.13 101.06 114.76 100.13 111.20 Z" />
<path fill="#e8c698" d=" M 45.01 111.82 C 47.00 110.55 48.65 112.87 48.05 114.77 C 46.63 115.08 45.05 113.17 45.01 111.82 Z" />
<path fill="#c0ad97" d=" M 172.58 118.45 C 174.90 116.13 176.65 113.35 178.82 110.90 C 179.24 114.88 177.13 118.84 173.84 121.01 C 172.29 121.34 171.47 119.42 172.58 118.45 Z" />
<path fill="#150000" d=" M 86.38 112.51 C 86.41 112.57 86.46 112.69 86.48 112.75 L 86.37 112.56 L 86.38 112.51 Z" />
<path fill="#c4af90" d=" M 104.45 111.74 C 106.84 112.10 110.03 112.12 110.66 115.07 C 112.65 120.52 117.51 126.11 115.00 132.13 C 113.23 131.52 113.19 129.51 112.58 128.07 C 112.54 127.94 112.46 127.69 112.42 127.56 C 108.70 122.83 108.39 116.31 104.45 111.74 Z" />
<path fill="#130300" d=" M 136.24 114.13 C 137.18 113.25 138.11 112.36 139.05 111.48 C 139.28 111.86 139.75 112.60 139.98 112.97 L 139.78 113.53 C 139.37 113.82 138.54 114.38 138.13 114.66 C 138.23 116.12 138.42 117.56 138.61 119.01 C 140.77 118.94 142.93 118.84 145.07 118.59 L 144.06 119.00 C 142.36 119.67 140.64 120.29 138.93 120.93 C 137.65 118.83 136.81 116.51 136.24 114.13 Z" />
<path fill="#100300" d=" M 84.18 113.08 C 85.66 113.12 87.13 115.32 86.98 116.73 C 85.23 117.13 83.92 114.55 84.18 113.08 Z" />
<path fill="#130300" d=" M 87.34 114.23 C 87.74 113.89 88.53 113.19 88.93 112.85 C 90.46 116.63 91.13 120.66 92.30 124.55 C 90.86 122.51 89.55 120.40 88.17 118.32 C 88.50 118.03 89.15 117.46 89.47 117.18 C 88.73 116.22 88.01 115.24 87.34 114.23 Z" />
<path fill="#30281d" d=" M 99.69 116.14 L 99.80 116.22 L 99.88 116.47 C 99.83 116.39 99.74 116.22 99.69 116.14 Z" />
<path fill="#130300" d=" M 125.67 116.51 C 125.91 116.40 126.40 116.19 126.65 116.09 C 126.46 118.29 126.26 120.49 126.07 122.69 C 125.56 122.01 125.04 121.33 124.52 120.66 C 124.88 119.27 125.26 117.89 125.67 116.51 Z" />
<path fill="#522029" d=" M 160.32 116.22 C 160.60 116.25 161.15 116.32 161.43 116.35 C 163.00 116.57 164.57 116.67 166.16 116.70 C 166.68 117.67 167.20 118.64 167.72 119.61 C 166.67 120.54 165.63 121.48 164.60 122.43 C 166.57 122.16 168.52 121.76 170.45 121.25 C 171.02 125.44 170.02 129.85 171.74 133.85 C 171.32 134.12 170.91 134.40 170.51 134.67 C 169.45 133.77 168.09 133.63 166.78 133.49 C 166.66 130.98 166.56 128.48 166.41 125.97 C 165.67 128.64 165.90 131.40 166.24 134.11 C 164.08 134.64 161.91 135.17 159.74 135.68 C 159.75 134.76 159.77 132.91 159.78 131.99 C 159.22 133.92 158.79 136.09 156.76 137.04 C 156.70 135.37 156.67 133.72 156.66 132.06 C 155.83 134.91 154.97 137.99 152.31 139.70 C 151.71 137.39 151.06 135.10 150.27 132.85 C 150.71 135.41 151.14 137.98 151.51 140.55 C 151.05 140.61 150.14 140.72 149.69 140.77 C 144.33 143.96 138.30 145.78 132.25 147.13 C 131.22 144.05 130.20 140.98 129.23 137.88 C 129.68 140.97 130.55 144.63 127.73 146.93 C 125.76 146.85 124.02 145.61 122.50 144.45 C 121.83 142.62 121.63 140.67 121.37 138.75 C 121.27 137.14 121.15 135.53 121.04 133.93 C 129.02 137.58 136.98 132.23 144.96 131.43 C 144.61 130.98 143.92 130.07 143.57 129.61 C 143.88 129.40 144.50 128.98 144.80 128.77 C 148.12 128.04 151.29 126.80 154.52 125.74 C 158.12 125.70 161.69 124.80 164.47 122.39 C 163.79 122.26 162.44 121.99 161.77 121.86 C 162.27 121.55 163.27 120.93 163.77 120.62 C 163.69 120.14 163.53 119.17 163.45 118.69 C 162.82 118.52 161.55 118.17 160.91 118.00 C 160.77 117.55 160.47 116.67 160.32 116.22 Z" />
<path fill="#51292d" d=" M 113.56 116.44 C 116.63 117.62 116.40 120.93 117.34 123.52 C 118.45 126.05 121.49 126.78 124.00 126.37 C 124.49 126.05 125.48 125.41 125.98 125.09 L 126.05 125.10 C 127.67 125.79 129.40 125.52 131.05 125.12 C 131.31 125.40 131.83 125.97 132.09 126.25 C 128.49 128.17 124.27 127.76 120.34 128.25 C 120.09 129.05 119.57 130.64 119.31 131.44 C 116.58 126.82 115.38 121.46 113.56 116.44 Z" />
<path fill="#3a0b00" d=" M 145.50 118.47 C 147.67 117.80 149.85 117.16 152.03 116.51 L 151.95 117.98 C 151.51 118.02 150.63 118.11 150.19 118.15 C 150.25 118.58 150.37 119.43 150.43 119.86 C 148.80 119.37 147.16 118.87 145.50 118.47 Z" />
<path fill="#6f0727" d=" M 151.95 117.98 C 154.92 117.73 157.97 117.21 160.91 118.00 C 161.55 118.17 162.82 118.52 163.45 118.69 C 163.53 119.17 163.69 120.14 163.77 120.62 C 163.27 120.93 162.27 121.55 161.77 121.86 C 159.40 123.23 157.02 124.61 154.52 125.74 C 151.29 126.80 148.12 128.04 144.80 128.77 C 144.50 128.98 143.88 129.40 143.57 129.61 C 143.30 129.74 142.77 129.98 142.50 130.11 C 139.76 129.52 136.80 128.90 134.16 130.25 C 130.40 132.06 126.22 132.29 122.23 133.29 C 121.23 132.71 120.26 132.08 119.31 131.44 C 119.57 130.64 120.09 129.05 120.34 128.25 C 124.27 127.76 128.49 128.17 132.09 126.25 C 132.29 125.91 132.70 125.22 132.90 124.88 C 133.14 124.70 133.63 124.33 133.88 124.15 C 135.41 125.91 137.15 123.89 137.42 122.24 C 137.80 121.91 138.55 121.26 138.93 120.93 C 140.64 120.29 142.36 119.67 144.06 119.00 L 145.07 118.59 C 145.18 118.56 145.39 118.50 145.50 118.47 C 147.16 118.87 148.80 119.37 150.43 119.86 C 150.37 119.43 150.25 118.58 150.19 118.15 C 150.63 118.11 151.51 118.02 151.95 117.98 Z" />
<path fill="#2b1d1c" d=" M 96.07 118.38 L 96.42 118.32 C 96.35 118.42 96.20 118.62 96.13 118.72 L 96.07 118.38 Z" />
<path fill="#dec695" d=" M 60.04 119.23 C 62.53 118.45 62.03 122.99 60.08 122.72 C 60.02 121.56 60.00 120.39 60.04 119.23 Z" />
<path fill="#21190c" d=" M 93.49 119.07 L 93.97 119.04 L 94.14 119.56 L 93.60 119.50 L 93.49 119.07 Z" />
<path fill="#fff5f3" d=" M 53.44 120.43 C 55.21 121.27 53.99 123.84 52.31 123.82 C 51.67 122.72 52.51 121.10 53.44 120.43 Z" />
<path fill="#2f211e" d=" M 96.94 120.59 C 97.01 120.67 97.14 120.82 97.21 120.90 L 97.07 120.85 L 96.94 120.59 Z" />
<path fill="#420809" d=" M 136.10 120.30 C 136.43 120.79 137.09 121.75 137.42 122.24 C 137.15 123.89 135.41 125.91 133.88 124.15 C 134.30 123.74 135.14 122.93 135.57 122.53 C 135.70 121.97 135.96 120.86 136.10 120.30 Z" />
<path fill="#320707" d=" M 154.52 125.74 C 157.02 124.61 159.40 123.23 161.77 121.86 C 162.44 121.99 163.79 122.26 164.47 122.39 C 161.69 124.80 158.12 125.70 154.52 125.74 Z" />
<path fill="#130300" d=" M 99.02 124.33 L 99.27 124.81 C 99.39 125.36 99.63 126.47 99.76 127.02 C 100.66 128.56 101.58 130.09 102.53 131.61 C 102.12 132.00 101.31 132.78 100.90 133.18 C 100.84 132.84 100.70 132.17 100.64 131.83 C 100.73 131.39 100.90 130.50 100.99 130.06 C 99.95 128.69 98.91 127.32 97.88 125.94 C 98.17 125.54 98.73 124.73 99.02 124.33 Z" />
<path fill="#e6c598" d=" M 57.40 125.42 C 57.87 125.30 58.80 125.07 59.27 124.96 C 58.69 126.47 58.03 127.95 57.32 129.41 C 56.13 131.82 54.88 134.20 53.70 136.61 C 53.04 137.93 52.39 139.27 51.76 140.61 C 50.90 142.20 50.09 143.81 49.26 145.41 C 48.76 146.48 48.24 147.54 47.73 148.61 C 47.03 149.93 46.36 151.27 45.71 152.62 C 45.05 153.95 44.40 155.27 43.76 156.61 C 42.91 158.19 42.10 159.79 41.27 161.39 C 40.77 162.47 40.26 163.54 39.75 164.62 C 39.03 165.93 38.35 167.27 37.69 168.61 C 37.04 169.94 36.39 171.27 35.75 172.61 C 34.67 174.58 33.68 176.61 32.74 178.66 C 31.61 180.68 30.58 182.75 29.72 184.90 C 45.46 185.04 61.21 184.99 76.95 184.92 C 76.96 181.50 76.93 178.09 77.02 174.67 C 83.30 180.63 89.42 186.77 95.38 193.05 C 69.22 193.03 43.05 192.98 16.89 193.10 C 18.41 189.95 20.39 186.96 21.26 183.54 L 21.96 184.24 C 21.57 186.82 20.72 189.30 19.91 191.78 C 26.27 191.03 32.64 191.98 39.00 191.64 C 56.38 191.50 73.77 191.75 91.15 191.51 C 87.47 186.78 83.19 182.50 78.46 178.83 C 78.52 180.90 78.64 182.98 78.81 185.05 C 76.56 186.03 74.15 186.69 71.68 186.52 C 57.40 185.94 43.09 186.59 28.82 186.34 C 29.15 184.01 29.20 181.56 30.28 179.43 C 37.41 165.17 45.05 151.17 51.71 136.68 C 54.00 133.12 55.71 129.27 57.40 125.42 Z" />
<path fill="#c8c9cb" d=" M 74.26 125.32 C 74.81 125.81 74.81 125.81 74.26 125.32 Z" />
<path fill="#3b210b" d=" M 92.74 125.21 C 93.11 125.48 93.84 126.01 94.21 126.27 L 94.14 127.12 C 93.79 126.64 93.09 125.69 92.74 125.21 Z" />
<path fill="#9f807d" d=" M 124.00 126.37 C 124.28 126.02 124.84 125.30 125.12 124.95 L 125.98 125.09 C 125.48 125.41 124.49 126.05 124.00 126.37 Z" />
<path fill="#320000" d=" M 131.05 125.12 C 131.51 125.06 132.43 124.94 132.90 124.88 C 132.70 125.22 132.29 125.91 132.09 126.25 C 131.83 125.97 131.31 125.40 131.05 125.12 Z" />
<path fill="#e9c691" d=" M 47.02 132.55 C 48.52 130.31 49.44 127.74 51.00 125.54 C 51.42 128.71 50.14 131.99 47.24 133.55 L 47.02 132.55 Z" />
<path fill="#421908" d=" M 94.10 127.94 C 94.24 128.52 94.52 129.67 94.66 130.25 L 93.96 129.82 C 94.00 129.35 94.07 128.41 94.10 127.94 Z" />
<path fill="#5d2734" d=" M 134.16 130.25 C 136.80 128.90 139.76 129.52 142.50 130.11 C 139.61 131.09 136.36 130.94 133.70 132.59 C 130.30 134.74 125.88 134.88 122.23 133.29 C 126.22 132.29 130.40 132.06 134.16 130.25 Z" />
<path fill="#130300" d=" M 107.63 129.70 C 110.21 131.07 111.79 133.48 111.80 136.45 C 110.23 134.31 109.10 131.90 107.63 129.70 Z" />
<path fill="#130300" d=" M 94.83 130.52 C 96.20 131.60 97.63 132.60 99.09 133.58 C 99.43 134.39 99.80 135.19 100.18 135.98 C 99.49 135.50 98.11 134.53 97.42 134.05 C 98.40 137.18 100.77 139.56 102.04 142.55 C 100.29 140.67 98.73 138.62 97.17 136.59 C 97.16 136.09 97.15 135.11 97.14 134.61 C 96.36 133.25 95.60 131.88 94.83 130.52 Z" />
<path fill="#3e2f2a" d=" M 115.58 131.98 C 116.13 131.71 117.22 131.18 117.77 130.92 C 118.04 132.37 118.31 133.83 118.59 135.29 C 118.71 134.74 118.95 133.64 119.07 133.09 C 119.57 133.30 120.55 133.72 121.04 133.93 C 121.15 135.53 121.27 137.14 121.37 138.75 C 121.20 139.35 120.85 140.54 120.68 141.13 C 118.39 138.44 116.83 135.25 115.58 131.98 Z" />
<path fill="#837061" d=" M 97.42 134.05 C 98.11 134.53 99.49 135.50 100.18 135.98 C 102.33 138.70 104.56 141.36 106.88 143.93 L 106.45 144.13 L 106.72 144.48 L 107.24 144.32 C 108.14 145.11 109.05 145.91 109.93 146.72 L 110.77 147.50 C 114.70 148.31 118.45 146.96 122.17 145.91 C 122.18 147.40 121.49 148.25 120.09 148.45 C 116.34 149.22 112.09 151.24 108.56 148.73 C 105.41 147.79 104.40 144.49 102.05 142.55 L 102.04 142.55 C 100.77 139.56 98.40 137.18 97.42 134.05 Z" />
<path fill="#3a0b00" d=" M 102.48 134.92 C 104.84 136.06 106.19 138.25 106.41 140.82 C 104.75 139.10 103.68 136.96 102.48 134.92 Z" />
<path fill="#c9b396" d=" M 157.24 139.15 C 160.38 137.17 164.58 135.89 167.95 138.05 C 167.83 139.60 167.70 141.14 167.57 142.69 C 166.93 142.40 165.65 141.83 165.00 141.54 C 164.59 141.35 163.77 140.98 163.36 140.79 C 163.76 140.19 164.16 139.60 164.56 139.00 C 158.72 139.41 154.21 143.59 148.87 145.52 C 148.23 145.33 146.95 144.95 146.31 144.75 C 149.96 142.89 153.76 141.33 157.24 139.15 Z" />
<path fill="#eac492" d=" M 44.37 137.70 L 45.17 138.29 C 45.34 139.47 45.51 140.74 44.79 141.78 C 41.58 147.33 38.74 153.06 35.84 158.77 C 34.56 161.15 33.79 164.09 31.27 165.52 L 31.01 164.57 C 33.09 161.35 34.48 157.77 36.27 154.40 C 37.65 151.75 38.92 149.06 40.28 146.41 C 41.73 143.55 43.24 140.71 44.37 137.70 Z" />
<path fill="#2d0105" d=" M 139.14 138.34 C 140.41 138.56 140.65 139.34 139.86 140.66 C 138.58 140.43 138.34 139.65 139.14 138.34 Z" />
<path fill="#d8b07f" d=" M 148.87 145.52 C 154.21 143.59 158.72 139.41 164.56 139.00 C 164.16 139.60 163.76 140.19 163.36 140.79 C 163.77 140.98 164.59 141.35 165.00 141.54 C 164.90 142.12 164.70 143.27 164.60 143.85 C 163.32 144.44 162.05 145.03 160.78 145.63 C 160.53 146.55 160.29 147.47 160.03 148.39 C 159.59 148.49 158.73 148.69 158.29 148.79 C 158.40 149.12 158.62 149.76 158.73 150.08 C 159.64 150.81 160.54 151.56 161.42 152.34 C 161.86 152.69 162.75 153.40 163.20 153.76 C 168.00 153.99 172.89 153.90 177.60 152.78 C 179.26 152.24 180.96 152.83 182.60 153.17 C 185.96 160.36 184.18 168.80 188.16 175.77 C 189.01 175.79 190.72 175.83 191.57 175.84 L 192.23 175.84 L 192.21 176.72 C 192.20 177.27 192.18 178.38 192.18 178.93 C 193.47 181.31 195.31 183.75 194.19 186.60 C 192.55 186.44 190.92 186.29 189.29 186.10 C 188.34 184.85 187.59 183.47 186.79 182.12 C 186.69 182.48 186.50 183.21 186.40 183.57 C 185.94 183.31 185.03 182.80 184.57 182.54 C 184.10 182.75 183.17 183.18 182.70 183.39 L 181.62 182.82 C 179.96 180.61 178.04 178.41 177.50 175.61 C 176.93 173.51 176.84 171.23 175.79 169.28 C 174.74 167.56 172.62 167.44 170.83 167.28 C 169.03 167.11 167.23 166.98 165.49 166.53 C 161.38 164.39 157.25 167.18 153.04 167.15 C 148.57 167.22 143.84 166.47 140.09 163.92 C 139.31 162.53 139.08 160.91 138.44 159.46 C 137.00 157.64 134.68 156.64 133.48 154.63 C 133.15 152.52 133.22 150.39 133.17 148.27 L 133.17 148.04 C 137.13 147.15 141.18 146.21 145.27 146.59 C 145.53 146.13 146.05 145.21 146.31 144.75 C 146.95 144.95 148.23 145.33 148.87 145.52 Z" />
<path fill="#2a0002" d=" M 133.19 140.23 C 136.46 140.47 131.57 143.22 133.19 140.23 Z" />
<path fill="#291316" d=" M 106.45 144.13 L 106.88 143.93 L 107.24 144.32 L 106.72 144.48 L 106.45 144.13 Z" />
<path fill="#c4a994" d=" M 160.78 145.63 C 162.05 145.03 163.32 144.44 164.60 143.85 C 164.30 145.60 163.99 147.35 163.69 149.11 C 162.36 149.30 161.02 149.48 159.69 149.66 L 160.03 148.39 C 160.29 147.47 160.53 146.55 160.78 145.63 Z" />
<path fill="#4d3438" d=" M 130.09 144.97 C 131.33 145.65 131.29 146.35 129.97 147.07 C 128.73 146.38 128.77 145.68 130.09 144.97 Z" />
<path fill="#c5af93" d=" M 128.95 153.03 C 128.99 150.58 130.47 148.25 133.17 148.27 C 133.22 150.39 133.15 152.52 133.48 154.63 C 134.68 156.64 137.00 157.64 138.44 159.46 C 139.08 160.91 139.31 162.53 140.09 163.92 C 143.84 166.47 148.57 167.22 153.04 167.15 C 157.25 167.18 161.38 164.39 165.49 166.53 C 159.26 168.26 152.56 170.88 146.14 168.79 C 144.19 168.86 142.11 168.73 140.58 167.35 C 137.38 165.25 136.65 161.25 134.79 158.15 C 134.61 158.79 134.24 160.07 134.06 160.71 C 132.52 161.43 132.67 158.84 132.17 158.00 C 131.60 155.75 131.36 153.43 131.14 151.13 C 130.59 151.61 129.50 152.56 128.95 153.03 Z" />
<path fill="#c9b396" d=" M 171.95 152.24 C 174.87 151.09 177.76 149.09 181.02 149.38 C 185.38 150.42 185.74 155.58 186.53 159.17 C 187.36 164.95 188.31 170.86 191.57 175.84 C 190.72 175.83 189.01 175.79 188.16 175.77 C 184.18 168.80 185.96 160.36 182.60 153.17 C 180.96 152.83 179.26 152.24 177.60 152.78 C 172.89 153.90 168.00 153.99 163.20 153.76 C 162.75 153.40 161.86 152.69 161.42 152.34 C 164.98 152.90 168.62 150.32 171.95 152.24 Z" />
<path fill="#c9b396" d=" M 170.83 167.28 C 172.62 167.44 174.74 167.56 175.79 169.28 C 176.84 171.23 176.93 173.51 177.50 175.61 C 178.04 178.41 179.96 180.61 181.62 182.82 C 181.81 184.56 182.64 186.14 182.86 187.87 C 177.16 183.81 176.22 176.46 172.10 171.20 C 172.88 171.32 174.43 171.55 175.20 171.67 C 173.86 170.09 172.38 168.64 170.83 167.28 Z" />
<path fill="#fafdf5" d=" M 29.37 168.10 L 29.82 168.14 C 29.33 172.58 26.60 176.36 23.86 179.71 C 24.12 179.17 24.64 178.08 24.91 177.54 C 25.77 175.81 26.63 174.09 27.50 172.37 C 28.20 170.98 28.81 169.55 29.37 168.10 Z" />
<path fill="#f6faf7" d=" M 162.05 168.96 C 163.96 168.96 165.87 168.94 167.79 168.94 C 168.77 170.08 169.77 171.21 170.78 172.33 C 171.63 173.74 172.53 175.12 173.35 176.56 C 174.42 178.73 175.64 180.85 176.27 183.21 C 175.53 182.98 174.06 182.54 173.32 182.32 C 173.11 182.51 172.68 182.90 172.47 183.10 C 171.68 182.18 170.64 181.75 169.36 181.80 C 167.76 180.98 166.11 180.26 164.36 179.82 C 163.56 179.10 162.76 178.39 161.96 177.67 C 161.44 174.82 159.78 171.46 162.05 168.96 Z" />
<path fill="#c9b396" d=" M 143.19 174.14 C 147.33 171.70 152.29 171.47 156.96 171.12 C 158.67 170.91 158.76 173.35 159.73 174.23 L 158.12 175.04 C 154.23 173.46 149.57 171.95 146.11 175.31 C 142.70 179.78 143.05 185.91 143.55 191.25 C 140.97 190.12 139.71 186.73 140.69 184.13 C 141.54 180.80 144.19 177.75 143.19 174.14 Z" />
<path fill="#d7af84" d=" M 146.11 175.31 C 149.57 171.95 154.23 173.46 158.12 175.04 C 158.91 176.27 159.71 177.50 160.54 178.72 L 160.41 180.06 C 160.38 180.49 160.31 181.36 160.28 181.80 C 163.52 184.06 168.59 184.17 170.26 188.26 C 169.64 188.35 168.39 188.53 167.77 188.62 C 169.76 190.08 172.42 191.38 172.71 194.16 C 169.54 198.11 163.50 196.41 159.78 194.17 C 158.22 192.23 155.80 192.47 153.59 192.15 L 153.61 193.78 C 150.21 193.67 146.78 193.37 143.61 192.05 L 143.55 191.25 C 143.05 185.91 142.70 179.78 146.11 175.31 Z" />
<path fill="#c3ad93" d=" M 192.21 176.72 C 194.42 179.66 197.72 182.95 196.90 186.94 C 195.33 190.57 190.65 189.13 189.29 186.10 C 190.92 186.29 192.55 186.44 194.19 186.60 C 195.31 183.75 193.47 181.31 192.18 178.93 C 192.18 178.38 192.20 177.27 192.21 176.72 Z" />
<path fill="#cbb595" d=" M 160.41 180.06 L 160.80 178.93 C 163.62 181.89 167.86 182.13 171.41 183.71 C 175.11 184.21 180.24 185.45 180.08 190.16 C 178.20 188.77 176.63 186.69 174.16 186.37 C 175.49 187.90 176.98 189.32 178.16 191.00 C 178.49 193.51 175.77 194.26 173.80 194.20 C 173.98 193.78 174.35 192.95 174.53 192.53 C 174.29 192.59 173.82 192.71 173.58 192.77 C 172.97 191.17 171.88 189.87 170.57 188.80 L 170.26 188.26 C 168.59 184.17 163.52 184.06 160.28 181.80 C 160.31 181.36 160.38 180.49 160.41 180.06 Z" />
<path fill="#c1aa8d" d=" M 182.70 183.39 C 183.17 183.18 184.10 182.75 184.57 182.54 C 185.03 182.80 185.94 183.31 186.40 183.57 L 187.06 183.94 C 187.72 185.67 188.40 187.39 189.02 189.14 C 185.64 188.99 183.73 186.21 182.03 183.70 L 182.70 183.39 Z" />
</svg>
